<?xml version="1.0" encoding="UTF-8"?>
<svg width="768" height="384" version="1.1" viewBox="0 0 768 384" xml:space="preserve" xmlns="http://www.w3.org/2000/svg"><defs><clipPath id="clipPath27"><path d="m44.57 41.96h518.11v232.72h-518.11z"/></clipPath><clipPath id="clipPath37"><path d="m44.57 41.96h518.11v232.72h-518.11z"/></clipPath><clipPath id="clipPath47"><path d="m44.57 41.96h518.11v232.72h-518.11z"/></clipPath><clipPath id="clipPath57"><path d="m44.57 41.96h518.11v232.72h-518.11z"/></clipPath><clipPath id="clipPath67"><path d="m44.57 41.96h518.11v232.72h-518.11z"/></clipPath><clipPath id="clipPath77"><path d="m44.57 41.96h518.11v232.72h-518.11z"/></clipPath><clipPath id="clipPath87"><path d="m44.57 41.96h518.11v232.72h-518.11z"/></clipPath><clipPath id="clipPath97"><path d="m44.57 41.96h518.11v232.72h-518.11z"/></clipPath><clipPath id="clipPath107"><path d="m44.57 41.96h518.11v232.72h-518.11z"/></clipPath><clipPath id="clipPath117"><path d="m44.57 41.96h518.11v232.72h-518.11z"/></clipPath><clipPath id="clipPath127"><path d="m44.57 41.96h518.11v232.72h-518.11z"/></clipPath><clipPath id="clipPath137"><path d="m44.57 41.96h518.11v232.72h-518.11z"/></clipPath><clipPath id="clipPath147"><path d="m44.57 41.96h518.11v232.72h-518.11z"/></clipPath><clipPath id="clipPath157"><path d="m44.57 41.96h518.11v232.72h-518.11z"/></clipPath><clipPath id="clipPath167"><path d="m44.57 41.96h518.11v232.72h-518.11z"/></clipPath><clipPath id="clipPath177"><path d="m44.57 41.96h518.11v232.72h-518.11z"/></clipPath><clipPath id="clipPath187"><path d="m44.57 41.96h518.11v232.72h-518.11z"/></clipPath><clipPath id="clipPath197"><path d="m44.57 41.96h518.11v232.72h-518.11z"/></clipPath><clipPath id="clipPath207"><path d="m44.57 41.96h518.11v232.72h-518.11z"/></clipPath><clipPath id="clipPath217"><path d="m44.57 41.96h518.11v232.72h-518.11z"/></clipPath><clipPath id="clipPath227"><path d="m44.57 41.96h518.11v232.72h-518.11z"/></clipPath><clipPath id="clipPath237"><path d="m44.57 41.96h518.11v232.72h-518.11z"/></clipPath><clipPath id="clipPath247"><path d="m44.57 41.96h518.11v232.72h-518.11z"/></clipPath><clipPath id="clipPath257"><path d="m44.57 41.96h518.11v232.72h-518.11z"/></clipPath><clipPath id="clipPath267"><path d="m44.57 41.96h518.11v232.72h-518.11z"/></clipPath><clipPath id="clipPath277"><path d="m44.57 41.96h518.11v232.72h-518.11z"/></clipPath><clipPath id="clipPath287"><path d="m44.57 41.96h518.11v232.72h-518.11z"/></clipPath><clipPath id="clipPath297"><path d="m44.57 41.96h518.11v232.72h-518.11z"/></clipPath><clipPath id="clipPath307"><path d="m44.57 41.96h518.11v232.72h-518.11z"/></clipPath><clipPath id="clipPath317"><path d="m44.57 41.96h518.11v232.72h-518.11z"/></clipPath></defs><g transform="matrix(1.3333 0 0 -1.3333 0 384)"><path d="m0 0h576v288h-576z" fill="#fff"/><path d="m44.57 41.96h518.11v232.72h-518.11z" fill="#fff"/><g clip-path="url(#clipPath27)"><path d="m50.595 41.96h12.049v55.128h-12.049z" fill="#1f77b4"/></g><g clip-path="url(#clipPath37)"><path d="m85.02 41.96h12.049v74.828h-12.049z" fill="#1f77b4"/></g><g clip-path="url(#clipPath47)"><path d="m119.45 41.96h12.049v99.554h-12.049z" fill="#1f77b4"/></g><g clip-path="url(#clipPath57)"><path d="m153.87 41.96h12.049v65.688h-12.049z" fill="#1f77b4"/></g><g clip-path="url(#clipPath67)"><path d="m188.3 41.96h12.049v205.63h-12.049z" fill="#1f77b4"/></g><g clip-path="url(#clipPath77)"><path d="m222.72 41.96h12.049v75.12h-12.049z" fill="#1f77b4"/></g><g clip-path="url(#clipPath87)"><path d="m257.15 41.96h12.049v73.558h-12.049z" fill="#1f77b4"/></g><g clip-path="url(#clipPath97)"><path d="m291.58 41.96h12.049v18.279h-12.049z" fill="#1f77b4"/></g><g clip-path="url(#clipPath107)"><path d="m326 41.96h12.049v72.061h-12.049z" fill="#1f77b4"/></g><g clip-path="url(#clipPath117)"><path d="m360.43 41.96h12.049v49.796h-12.049z" fill="#1f77b4"/></g><g clip-path="url(#clipPath127)"><path d="m394.85 41.96h12.049v123.34h-12.049z" fill="#1f77b4"/></g><g clip-path="url(#clipPath137)"><path d="m429.28 41.96h12.049v164.37h-12.049z" fill="#1f77b4"/></g><g clip-path="url(#clipPath147)"><path d="m463.71 41.96h12.049v76.541h-12.049z" fill="#1f77b4"/></g><g clip-path="url(#clipPath157)"><path d="m498.13 41.96h12.049v74.091h-12.049z" fill="#1f77b4"/></g><g clip-path="url(#clipPath167)"><path d="m532.56 41.96h12.049v71.464h-12.049z" fill="#1f77b4"/></g><g clip-path="url(#clipPath177)"><path d="m62.644 41.96h12.049v54.848h-12.049z" fill="#ff7f0e"/></g><g clip-path="url(#clipPath187)"><path d="m97.07 41.96h12.049v111.52h-12.049z" fill="#ff7f0e"/></g><g clip-path="url(#clipPath197)"><path d="m131.5 41.96h12.049v147.1h-12.049z" fill="#ff7f0e"/></g><g clip-path="url(#clipPath207)"><path d="m165.92 41.96h12.049v36.505h-12.049z" fill="#ff7f0e"/></g><g clip-path="url(#clipPath217)"><path d="m200.35 41.96h12.049v221.64h-12.049z" fill="#ff7f0e"/></g><g clip-path="url(#clipPath227)"><path d="m234.77 41.96h12.049v136.15h-12.049z" fill="#ff7f0e"/></g><g clip-path="url(#clipPath237)"><path d="m269.2 41.96h12.049v93.018h-12.049z" fill="#ff7f0e"/></g><g clip-path="url(#clipPath247)"><path d="m303.62 41.96h12.049v78.488h-12.049z" fill="#ff7f0e"/></g><g clip-path="url(#clipPath257)"><path d="m338.05 41.96h12.049v55.65h-12.049z" fill="#ff7f0e"/></g><g clip-path="url(#clipPath267)"><path d="m372.48 41.96h12.049v22.637h-12.049z" fill="#ff7f0e"/></g><g clip-path="url(#clipPath277)"><path d="m406.9 41.96h12.049v111.46h-12.049z" fill="#ff7f0e"/></g><g clip-path="url(#clipPath287)"><path d="m441.33 41.96h12.049v166.77h-12.049z" fill="#ff7f0e"/></g><g clip-path="url(#clipPath297)"><path d="m475.75 41.96h12.049v117.26h-12.049z" fill="#ff7f0e"/></g><g clip-path="url(#clipPath307)"><path d="m510.18 41.96h12.049v81.92h-12.049z" fill="#ff7f0e"/></g><g clip-path="url(#clipPath317)"><path d="m544.61 41.96h12.049v72.648h-12.049z" fill="#ff7f0e"/></g><g><path d="m62.644 41.96v-3.5" stroke="#000" stroke-linejoin="round" stroke-miterlimit="10" stroke-width=".8"/><text transform="matrix(1 0 0 -1 56.183 27.366)" fill="#000000" font-family="DejaVuSans" font-size="10px"><tspan x="0 6.5599999" y="0">K7</tspan></text><path d="m97.07 41.96v-3.5" stroke="#000" stroke-linejoin="round" stroke-miterlimit="10" stroke-width=".8"/><text transform="matrix(1 0 0 -1 90.609 27.366)" fill="#000000" font-family="DejaVuSans" font-size="10px"><tspan x="0 6.5599999" y="0">K8</tspan></text><path d="m131.5 41.96v-3.5" stroke="#000" stroke-linejoin="round" stroke-miterlimit="10" stroke-width=".8"/><text transform="matrix(1 0 0 -1 121.85 27.366)" fill="#000000" font-family="DejaVuSans" font-size="10px"><tspan x="0 6.5599999 12.92" y="0">K13</tspan></text><path d="m165.92 41.96v-3.5" stroke="#000" stroke-linejoin="round" stroke-miterlimit="10" stroke-width=".8"/><text transform="matrix(1 0 0 -1 156.28 27.366)" fill="#000000" font-family="DejaVuSans" font-size="10px"><tspan x="0 6.5599999 12.92" y="0">K22</tspan></text><path d="m200.35 41.96v-3.5" stroke="#000" stroke-linejoin="round" stroke-miterlimit="10" stroke-width=".8"/><text transform="matrix(1 0 0 -1 190.71 27.366)" fill="#000000" font-family="DejaVuSans" font-size="10px"><tspan x="0 6.5599999 12.92" y="0">K25</tspan></text><path d="m234.77 41.96v-3.5" stroke="#000" stroke-linejoin="round" stroke-miterlimit="10" stroke-width=".8"/><text transform="matrix(1 0 0 -1 224.66 27.366)" fill="#000000" font-family="DejaVuSans" font-size="10px"><tspan x="0 7.52 13.88" y="0">H26</tspan></text><path d="m269.2 41.96v-3.5" stroke="#000" stroke-linejoin="round" stroke-miterlimit="10" stroke-width=".8"/><text transform="matrix(1 0 0 -1 259.56 27.366)" fill="#000000" font-family="DejaVuSans" font-size="10px"><tspan x="0 6.5599999 12.92" y="0">K27</tspan></text><path d="m303.62 41.96v-3.5" stroke="#000" stroke-linejoin="round" stroke-miterlimit="10" stroke-width=".8"/><text transform="matrix(1 0 0 -1 293.98 27.366)" fill="#000000" font-family="DejaVuSans" font-size="10px"><tspan x="0 6.5599999 12.92" y="0">K39</tspan></text><path d="m338.05 41.96v-3.5" stroke="#000" stroke-linejoin="round" stroke-miterlimit="10" stroke-width=".8"/><text transform="matrix(1 0 0 -1 328.41 27.366)" fill="#000000" font-family="DejaVuSans" font-size="10px"><tspan x="0 6.5599999 12.92" y="0">K53</tspan></text><path d="m372.48 41.96v-3.5" stroke="#000" stroke-linejoin="round" stroke-miterlimit="10" stroke-width=".8"/><text transform="matrix(1 0 0 -1 363.06 27.366)" fill="#000000" font-family="DejaVuSans" font-size="10px"><tspan x="0 6.1100001 12.47" y="0">T58</tspan></text><path d="m406.9 41.96v-3.5" stroke="#000" stroke-linejoin="round" stroke-miterlimit="10" stroke-width=".8"/><text transform="matrix(1 0 0 -1 397.26 27.366)" fill="#000000" font-family="DejaVuSans" font-size="10px"><tspan x="0 6.5599999 12.92" y="0">K60</tspan></text><path d="m441.33 41.96v-3.5" stroke="#000" stroke-linejoin="round" stroke-miterlimit="10" stroke-width=".8"/><text transform="matrix(1 0 0 -1 431.69 27.366)" fill="#000000" font-family="DejaVuSans" font-size="10px"><tspan x="0 6.5599999 12.92" y="0">K72</tspan></text><path d="m475.75 41.96v-3.5" stroke="#000" stroke-linejoin="round" stroke-miterlimit="10" stroke-width=".8"/><text transform="matrix(1 0 0 -1 466.11 27.366)" fill="#000000" font-family="DejaVuSans" font-size="10px"><tspan x="0 6.5599999 12.92" y="0">K73</tspan></text><path d="m510.18 41.96v-3.5" stroke="#000" stroke-linejoin="round" stroke-miterlimit="10" stroke-width=".8"/><text transform="matrix(1 0 0 -1 500.54 27.366)" fill="#000000" font-family="DejaVuSans" font-size="10px"><tspan x="0 6.5599999 12.92" y="0">K79</tspan></text><path d="m544.61 41.96v-3.5" stroke="#000" stroke-linejoin="round" stroke-miterlimit="10" stroke-width=".8"/><text transform="matrix(1 0 0 -1 534.97 27.366)" fill="#000000" font-family="DejaVuSans" font-size="10px"><tspan x="0 6.5599999 12.92" y="0">K86</tspan></text><text transform="matrix(1 0 0 -1 283.65 13.694)" fill="#000000" font-family="DejaVuSans" font-size="10px"><tspan x="0 6.9499998 13.1 18.309999 21.09 27.440001 33.779999" y="0">Residue</tspan></text><path d="m44.57 41.96h-3.5" stroke="#000" stroke-linejoin="round" stroke-miterlimit="10" stroke-width=".8"/><text transform="matrix(1 0 0 -1 31.211 38.163)" fill="#000000" font-family="DejaVuSans" font-size="10px"><tspan x="0" y="0">0</tspan></text><path d="m44.57 80.04h-3.5" stroke="#000" stroke-linejoin="round" stroke-miterlimit="10" stroke-width=".8"/><text transform="matrix(1 0 0 -1 31.211 76.243)" fill="#000000" font-family="DejaVuSans" font-size="10px"><tspan x="0" y="0">5</tspan></text><path d="m44.57 118.12h-3.5" stroke="#000" stroke-linejoin="round" stroke-miterlimit="10" stroke-width=".8"/><text transform="matrix(1 0 0 -1 24.851 114.32)" fill="#000000" font-family="DejaVuSans" font-size="10px"><tspan x="0 6.3600001" y="0">10</tspan></text><path d="m44.57 156.2h-3.5" stroke="#000" stroke-linejoin="round" stroke-miterlimit="10" stroke-width=".8"/><text transform="matrix(1 0 0 -1 24.851 152.4)" fill="#000000" font-family="DejaVuSans" font-size="10px"><tspan x="0 6.3600001" y="0">15</tspan></text><path d="m44.57 194.28h-3.5" stroke="#000" stroke-linejoin="round" stroke-miterlimit="10" stroke-width=".8"/><text transform="matrix(1 0 0 -1 24.851 190.48)" fill="#000000" font-family="DejaVuSans" font-size="10px"><tspan x="0 6.3600001" y="0">20</tspan></text><path d="m44.57 232.36h-3.5" stroke="#000" stroke-linejoin="round" stroke-miterlimit="10" stroke-width=".8"/><text transform="matrix(1 0 0 -1 24.851 228.56)" fill="#000000" font-family="DejaVuSans" font-size="10px"><tspan x="0 6.3600001" y="0">25</tspan></text><path d="m44.57 270.44h-3.5" stroke="#000" stroke-linejoin="round" stroke-miterlimit="10" stroke-width=".8"/><text transform="matrix(1 0 0 -1 24.851 266.64)" fill="#000000" font-family="DejaVuSans" font-size="10px"><tspan x="0 6.3600001" y="0">30</tspan></text><text transform="matrix(0 1 1 0 18.773 96.617)" fill="#000000" font-family="DejaVuSans" font-size="10px"><tspan x="0 6.0300002 12.18 16.290001 21.790001 27.940001 34.279999 38.200001 41.380001 47.5 51.02 54.200001 58.119999 64.239998 68.160004 74.290001 77.07 80.25 84.169998 86.949997 96.690002 102.84 106.02 109.92 119.42" y="0">Percent of total time (%)</tspan></text></g><g fill="none" stroke="#000" stroke-linecap="square" stroke-miterlimit="10" stroke-width=".8"><path d="m44.57 41.96v232.72"/><path d="m562.68 41.96v232.72"/><path d="m44.57 41.96h518.11"/><path d="m44.57 274.68h518.11"/></g><path d="m486.96 236.01h68.719c1.3333 0 2 0.66667 2 2v29.672c0 1.3333-0.66667 2-2 2h-68.719c-1.3333 0-2-0.66667-2-2v-29.672c0-1.3333 0.66667-2 2-2z" fill="#fff" fill-opacity=".8" stroke="#ccc" stroke-miterlimit="10" stroke-opacity=".8"/><g><path d="m488.96 258.09h20v7h-20z" fill="#1f77b4"/><text transform="matrix(1 0 0 -1 516.96 258.09)" fill="#000000" font-family="DejaVuSans" font-size="10px"><tspan x="0 6.3400002 12.69 18.809999 25.15 31.5" y="0">hbonds</tspan></text><path d="m488.96 242.09h20v7h-20z" fill="#ff7f0e"/></g><g transform="translate(516.96 242.09)" fill="#000000" font-family="DejaVuSans" font-size="10px"><text transform="matrix(1 0 0 -1 1.9482 .71875)"><tspan x="0 10.327148 16.689453" y="0">&lt;28</tspan></text><text transform="matrix(1 0 0 -1 25 .71875)" font-style="italic"><tspan x="0" y="0">Å</tspan></text></g></g></svg>
