<?xml version="1.0" encoding="UTF-8"?>
<svg width="576" height="384" version="1.1" viewBox="0 0 576 384" xml:space="preserve" xmlns="http://www.w3.org/2000/svg"><defs><clipPath id="clipPath1087"><path d="m44.57 41.96h374.11v232.72h-374.11z"/></clipPath><clipPath id="clipPath1097"><path d="m44.57 41.96h374.11v232.72h-374.11z"/></clipPath><clipPath id="clipPath1107"><path d="m44.57 41.96h374.11v232.72h-374.11z"/></clipPath><clipPath id="clipPath1117"><path d="m44.57 41.96h374.11v232.72h-374.11z"/></clipPath><clipPath id="clipPath1127"><path d="m44.57 41.96h374.11v232.72h-374.11z"/></clipPath><clipPath id="clipPath1137"><path d="m44.57 41.96h374.11v232.72h-374.11z"/></clipPath><clipPath id="clipPath1147"><path d="m44.57 41.96h374.11v232.72h-374.11z"/></clipPath><clipPath id="clipPath1157"><path d="m44.57 41.96h374.11v232.72h-374.11z"/></clipPath><clipPath id="clipPath1167"><path d="m44.57 41.96h374.11v232.72h-374.11z"/></clipPath><clipPath id="clipPath1185"><path d="m44.57 41.96h374.11v232.72h-374.11z"/></clipPath><clipPath id="clipPath1203"><path d="m44.57 41.96h374.11v232.72h-374.11z"/></clipPath><clipPath id="clipPath1221"><path d="m44.57 41.96h374.11v232.72h-374.11z"/></clipPath><clipPath id="clipPath1239"><path d="m44.57 41.96h374.11v232.72h-374.11z"/></clipPath><clipPath id="clipPath1261"><path d="m44.57 41.96h374.11v232.72h-374.11z"/></clipPath><clipPath id="clipPath1279"><path d="m44.57 41.96h374.11v232.72h-374.11z"/></clipPath><clipPath id="clipPath1297"><path d="m44.57 41.96h374.11v232.72h-374.11z"/></clipPath><clipPath id="clipPath1315"><path d="m44.57 41.96h374.11v232.72h-374.11z"/></clipPath><clipPath id="clipPath1333"><path d="m44.57 41.96h374.11v232.72h-374.11z"/></clipPath><clipPath id="clipPath1351"><path d="m44.57 41.96h374.11v232.72h-374.11z"/></clipPath><clipPath id="clipPath1369"><path d="m44.57 41.96h374.11v232.72h-374.11z"/></clipPath><clipPath id="clipPath1391"><path d="m44.57 41.96h374.11v232.72h-374.11z"/></clipPath><clipPath id="clipPath1401"><path d="m44.57 41.96h374.11v232.72h-374.11z"/></clipPath></defs><g transform="matrix(1.3333 0 0 -1.3333 0 384)"><path d="m0 0h432v288h-432z" fill="#fff"/><path d="m44.57 41.96h374.11v232.72h-374.11z" fill="#fff"/><g clip-path="url(#clipPath1087)"><path d="m298.17 41.96v232.72h7.1944v-232.72z" fill="#17becf" fill-opacity=".3"/></g><g clip-path="url(#clipPath1097)"><path d="m348.53 41.96v232.72h7.1944v-232.72z" fill="#17becf" fill-opacity=".3"/></g><g clip-path="url(#clipPath1107)"><path d="m226.23 41.96v232.72h3.5972v-232.72z" fill="#d62728" fill-opacity=".3"/></g><g clip-path="url(#clipPath1117)"><path d="m118.31 41.96v232.72h3.5972v-232.72z" fill="#9467bd" fill-opacity=".3"/></g><g clip-path="url(#clipPath1127)"><path d="m129.1 41.96v232.72h10.792v-232.72z" fill="#9467bd" fill-opacity=".3"/></g><g clip-path="url(#clipPath1137)"><path d="m157.88 41.96v232.72h3.5972v-232.72z" fill="#9467bd" fill-opacity=".3"/></g><g clip-path="url(#clipPath1147)"><path d="m168.67 41.96v232.72h7.1944v-232.72z" fill="#2ca02c" fill-opacity=".3"/></g><g clip-path="url(#clipPath1157)"><path d="m247.81 41.96v232.72h10.792v-232.72z" fill="#2ca02c" fill-opacity=".3"/></g><g clip-path="url(#clipPath1167)"><path d="m112.92 41.96v232.72" fill="none" stroke="#b0b0b0" stroke-linecap="square" stroke-linejoin="round" stroke-miterlimit="10" stroke-width=".8"/></g><g><path d="m112.92 41.96v-3.5" stroke="#000" stroke-linejoin="round" stroke-miterlimit="10" stroke-width=".8"/><text transform="matrix(1 0 0 -1 106.56 27.366)" fill="#000000" font-family="DejaVuSans" font-size="10px"><tspan x="0 6.3600001" y="0">20</tspan></text></g><g clip-path="url(#clipPath1185)"><path d="m184.86 41.96v232.72" fill="none" stroke="#b0b0b0" stroke-linecap="square" stroke-linejoin="round" stroke-miterlimit="10" stroke-width=".8"/></g><g><path d="m184.86 41.96v-3.5" stroke="#000" stroke-linejoin="round" stroke-miterlimit="10" stroke-width=".8"/><text transform="matrix(1 0 0 -1 178.5 27.366)" fill="#000000" font-family="DejaVuSans" font-size="10px"><tspan x="0 6.3600001" y="0">40</tspan></text></g><g clip-path="url(#clipPath1203)"><path d="m256.81 41.96v232.72" fill="none" stroke="#b0b0b0" stroke-linecap="square" stroke-linejoin="round" stroke-miterlimit="10" stroke-width=".8"/></g><g><path d="m256.81 41.96v-3.5" stroke="#000" stroke-linejoin="round" stroke-miterlimit="10" stroke-width=".8"/><text transform="matrix(1 0 0 -1 250.45 27.366)" fill="#000000" font-family="DejaVuSans" font-size="10px"><tspan x="0 6.3600001" y="0">60</tspan></text></g><g clip-path="url(#clipPath1221)"><path d="m328.75 41.96v232.72" fill="none" stroke="#b0b0b0" stroke-linecap="square" stroke-linejoin="round" stroke-miterlimit="10" stroke-width=".8"/></g><g><path d="m328.75 41.96v-3.5" stroke="#000" stroke-linejoin="round" stroke-miterlimit="10" stroke-width=".8"/><text transform="matrix(1 0 0 -1 322.39 27.366)" fill="#000000" font-family="DejaVuSans" font-size="10px"><tspan x="0 6.3600001" y="0">80</tspan></text></g><g clip-path="url(#clipPath1239)"><path d="m400.69 41.96v232.72" fill="none" stroke="#b0b0b0" stroke-linecap="square" stroke-linejoin="round" stroke-miterlimit="10" stroke-width=".8"/></g><g><path d="m400.69 41.96v-3.5" stroke="#000" stroke-linejoin="round" stroke-miterlimit="10" stroke-width=".8"/><text transform="matrix(1 0 0 -1 391.15 27.366)" fill="#000000" font-family="DejaVuSans" font-size="10px"><tspan x="0 6.3600001 12.72" y="0">100</tspan></text><text transform="matrix(1 0 0 -1 211.65 13.694)" fill="#000000" font-family="DejaVuSans" font-size="10px"><tspan x="0 6.9499998 13.1 18.309999 21.09 27.440001 33.779999" y="0">Residue</tspan></text></g><g clip-path="url(#clipPath1261)"><path d="m44.57 41.96h374.11" fill="none" stroke="#b0b0b0" stroke-linecap="square" stroke-linejoin="round" stroke-miterlimit="10" stroke-width=".8"/></g><g><path d="m44.57 41.96h-3.5" stroke="#000" stroke-linejoin="round" stroke-miterlimit="10" stroke-width=".8"/><text transform="matrix(1 0 0 -1 31.211 38.163)" fill="#000000" font-family="DejaVuSans" font-size="10px"><tspan x="0" y="0">0</tspan></text></g><g clip-path="url(#clipPath1279)"><path d="m44.57 80.04h374.11" fill="none" stroke="#b0b0b0" stroke-linecap="square" stroke-linejoin="round" stroke-miterlimit="10" stroke-width=".8"/></g><g><path d="m44.57 80.04h-3.5" stroke="#000" stroke-linejoin="round" stroke-miterlimit="10" stroke-width=".8"/><text transform="matrix(1 0 0 -1 31.211 76.243)" fill="#000000" font-family="DejaVuSans" font-size="10px"><tspan x="0" y="0">5</tspan></text></g><g clip-path="url(#clipPath1297)"><path d="m44.57 118.12h374.11" fill="none" stroke="#b0b0b0" stroke-linecap="square" stroke-linejoin="round" stroke-miterlimit="10" stroke-width=".8"/></g><g><path d="m44.57 118.12h-3.5" stroke="#000" stroke-linejoin="round" stroke-miterlimit="10" stroke-width=".8"/><text transform="matrix(1 0 0 -1 24.851 114.32)" fill="#000000" font-family="DejaVuSans" font-size="10px"><tspan x="0 6.3600001" y="0">10</tspan></text></g><g clip-path="url(#clipPath1315)"><path d="m44.57 156.2h374.11" fill="none" stroke="#b0b0b0" stroke-linecap="square" stroke-linejoin="round" stroke-miterlimit="10" stroke-width=".8"/></g><g><path d="m44.57 156.2h-3.5" stroke="#000" stroke-linejoin="round" stroke-miterlimit="10" stroke-width=".8"/><text transform="matrix(1 0 0 -1 24.851 152.4)" fill="#000000" font-family="DejaVuSans" font-size="10px"><tspan x="0 6.3600001" y="0">15</tspan></text></g><g clip-path="url(#clipPath1333)"><path d="m44.57 194.28h374.11" fill="none" stroke="#b0b0b0" stroke-linecap="square" stroke-linejoin="round" stroke-miterlimit="10" stroke-width=".8"/></g><g><path d="m44.57 194.28h-3.5" stroke="#000" stroke-linejoin="round" stroke-miterlimit="10" stroke-width=".8"/><text transform="matrix(1 0 0 -1 24.851 190.48)" fill="#000000" font-family="DejaVuSans" font-size="10px"><tspan x="0 6.3600001" y="0">20</tspan></text></g><g clip-path="url(#clipPath1351)"><path d="m44.57 232.36h374.11" fill="none" stroke="#b0b0b0" stroke-linecap="square" stroke-linejoin="round" stroke-miterlimit="10" stroke-width=".8"/></g><g><path d="m44.57 232.36h-3.5" stroke="#000" stroke-linejoin="round" stroke-miterlimit="10" stroke-width=".8"/><text transform="matrix(1 0 0 -1 24.851 228.56)" fill="#000000" font-family="DejaVuSans" font-size="10px"><tspan x="0 6.3600001" y="0">25</tspan></text></g><g clip-path="url(#clipPath1369)"><path d="m44.57 270.44h374.11" fill="none" stroke="#b0b0b0" stroke-linecap="square" stroke-linejoin="round" stroke-miterlimit="10" stroke-width=".8"/></g><g><path d="m44.57 270.44h-3.5" stroke="#000" stroke-linejoin="round" stroke-miterlimit="10" stroke-width=".8"/><text transform="matrix(1 0 0 -1 24.851 266.64)" fill="#000000" font-family="DejaVuSans" font-size="10px"><tspan x="0 6.3600001" y="0">30</tspan></text><text transform="matrix(0 1 1 0 18.773 96.617)" fill="#000000" font-family="DejaVuSans" font-size="10px"><tspan x="0 6.0300002 12.18 16.290001 21.790001 27.940001 34.279999 38.200001 41.380001 47.5 51.02 54.200001 58.119999 64.239998 68.160004 74.290001 77.07 80.25 84.169998 86.949997 96.690002 102.84 106.02 109.92 119.42" y="0">Percent of total time (%)</tspan></text></g><g clip-path="url(#clipPath1391)"><path d="m44.57 41.96h10.792l3.5972 1.7136 3.5972-1.7136 3.5972 55.128 3.5972 19.7 3.5972-74.828h7.1944l3.5972 0.35542 3.5972 99.199 3.5972-99.554h3.5972l3.5972 1.739 3.5972-1.739h14.389l3.5972 65.688 3.5972-65.688 3.5972 1.447 3.5972 204.19 3.5972-130.51 3.5972-1.5613 3.5972-73.533 3.5972-0.02539h3.5972l3.5972 0.07616 3.5972-0.07616 3.5972 0.02539 3.5972-0.02539h14.389l3.5972 18.279 3.5972-18.279h3.5972l3.5972 0.40619 3.5972-0.40619h3.5972l3.5972 0.07616 3.5972-0.07616 3.5972 13.341 3.5972-9.5962 3.5972-3.7446h10.792l3.5972 72.061 3.5972-72.061h10.792l3.5972 49.796 3.5972-49.796 3.5972 123.34 3.5972-123.34h28.778l3.5972 6.0928 3.5972-6.0928 3.5972 164.37 3.5972-87.826 3.5972-76.541h14.389l3.5972 74.091 3.5972-74.091h17.986l3.5972 71.464 3.5972-64.432 3.5972-7.0068 3.5972-0.02539h57.555" fill="none" stroke="#1f77b4" stroke-linecap="square" stroke-linejoin="round" stroke-miterlimit="10" stroke-width="1.5"/></g><g clip-path="url(#clipPath1401)"><path d="m44.57 41.96h7.1944l3.5972 13.125 3.5972-8.2081 3.5972-4.9168 3.5972 54.848 3.5972 56.674 3.5972-111.52h3.5972l3.5972 14.911 3.5972-9.3319 3.5972 141.52 3.5972-147.1h3.5972l3.5972 22.176 3.5972-22.176h14.389l3.5972 36.505 3.5972-31.628 3.5972 22.216 3.5972 194.55 3.5972-85.492 3.5972-43.128 3.5972-92.898 3.5972-0.12041h32.375l3.5972 78.488 3.5972-78.488h3.5972l3.5972 0.7024 3.5972-0.7024 3.5972 0.04014 3.5972 0.22076 3.5972-0.26089 3.5972 10.777 3.5972 9.6731 3.5972-20.45 3.5972 0.34117 3.5972-0.34117h3.5972l3.5972 55.65 3.5972-54.145 3.5972-1.5051 3.5972 4.0539 3.5972-1.2242 3.5972 19.808 3.5972-22.637 3.5972 111.46 3.5972-111.46 3.5972 3.4719 3.5972-3.4719h17.986l3.5972 48.626 3.5972 30.063 3.5972-65.022 3.5972 153.1 3.5972-49.509 3.5972-117.26h14.389l3.5972 81.92 3.5972-81.92 3.5972 102.71 3.5972-92.677 3.5972 56.313 3.5972-15.393 3.5972 1.7058 3.5972 19.988 3.5972-20.53 3.5972-49.69 3.5972-2.4283 3.5972 40.338 3.5972-40.338h43.167l3.5972 0.08028 3.5972-0.080283" fill="none" stroke="#ff7f0e" stroke-linecap="square" stroke-linejoin="round" stroke-miterlimit="10" stroke-width="1.5"/></g><g fill="none" stroke="#000" stroke-linecap="square" stroke-miterlimit="10" stroke-width=".8"><path d="m44.57 41.96v232.72"/><path d="m418.68 41.96v232.72"/><path d="m44.57 41.96h374.11"/><path d="m44.57 274.68h374.11"/></g><path d="m338.18 177.32h73.5c1.3333 0 2 0.66667 2 2v88.359c0 1.3333-0.66667 2-2 2h-73.5c-1.3333 0-2-0.66667-2-2v-88.359c0-1.3333 0.66667-2 2-2z" fill="#fff" stroke="#ccc" stroke-miterlimit="10"/><path d="m340.18 261.59h20" fill="none" stroke="#1f77b4" stroke-linecap="square" stroke-linejoin="round" stroke-miterlimit="10" stroke-width="1.5"/><text transform="matrix(1 0 0 -1 368.18 258.09)" fill="#000000" font-family="DejaVuSans" font-size="10px"><tspan x="0 7.52 11.13 17.48 23.6 29.940001 36.290001" y="0">H-bonds</tspan></text><path d="m340.18 245.59h20" fill="none" stroke="#ff7f0e" stroke-linecap="square" stroke-linejoin="round" stroke-miterlimit="10" stroke-width="1.5"/><g transform="translate(368.18 242.09)" fill="#000000" font-family="DejaVuSans" font-size="10px"><text transform="matrix(1 0 0 -1 1.9482 .71875)"><tspan x="0 10.327148 16.689453" y="0">&lt;28</tspan></text><text transform="matrix(1 0 0 -1 25 .71875)" font-style="italic"><tspan x="0" y="0">Å</tspan></text></g><g><path d="m340.18 227.41h20v7h-20z" fill="#17becf" fill-opacity=".3"/><text transform="matrix(1 0 0 -1 368.18 227.41)" fill="#000000" font-family="DejaVuSans" font-size="10px"><tspan x="0" y="0">A</tspan></text><path d="m340.18 212.74h20v7h-20z" fill="#d62728" fill-opacity=".3"/><text transform="matrix(1 0 0 -1 368.18 212.74)" fill="#000000" font-family="DejaVuSans" font-size="10px"><tspan x="0" y="0">C</tspan></text><path d="m340.18 198.07h20v7h-20z" fill="#9467bd" fill-opacity=".3"/><text transform="matrix(1 0 0 -1 368.18 198.07)" fill="#000000" font-family="DejaVuSans" font-size="10px"><tspan x="0" y="0">L</tspan></text><path d="m340.18 183.4h20v7h-20z" fill="#2ca02c" fill-opacity=".3"/><text transform="matrix(1 0 0 -1 368.18 183.4)" fill="#000000" font-family="DejaVuSans" font-size="10px"><tspan x="0" y="0">N</tspan></text></g></g></svg>
