<?xml version="1.0" encoding="UTF-8" standalone="no"?>
<!-- Created with matplotlib (https://matplotlib.org/) -->

<svg
   height="576pt"
   version="1.1"
   viewBox="0 0 576 576"
   width="576pt"
   id="svg1409"
   sodipodi:docname="REX-GECO-dihedrals.svg"
   inkscape:version="1.1 (c4e8f9e, 2021-05-24)"
   xmlns:inkscape="http://www.inkscape.org/namespaces/inkscape"
   xmlns:sodipodi="http://sodipodi.sourceforge.net/DTD/sodipodi-0.dtd"
   xmlns:xlink="http://www.w3.org/1999/xlink"
   xmlns="http://www.w3.org/2000/svg"
   xmlns:svg="http://www.w3.org/2000/svg"
   xmlns:rdf="http://www.w3.org/1999/02/22-rdf-syntax-ns#"
   xmlns:cc="http://creativecommons.org/ns#"
   xmlns:dc="http://purl.org/dc/elements/1.1/">
  <sodipodi:namedview
     id="namedview1411"
     pagecolor="#ffffff"
     bordercolor="#666666"
     borderopacity="1.0"
     inkscape:pageshadow="2"
     inkscape:pageopacity="1"
     inkscape:pagecheckerboard="true"
     inkscape:document-units="pt"
     showgrid="false"
     inkscape:zoom="1.1028646"
     inkscape:cx="384"
     inkscape:cy="474.67296"
     inkscape:window-width="1296"
     inkscape:window-height="1027"
     inkscape:window-x="377"
     inkscape:window-y="25"
     inkscape:window-maximized="0"
     inkscape:current-layer="svg1409" />
  <metadata
     id="metadata751">
    <rdf:RDF>
      <cc:Work>
        <dc:type
           rdf:resource="http://purl.org/dc/dcmitype/StillImage" />
        <dc:date>2021-08-23T18:38:47.567960</dc:date>
        <dc:format>image/svg+xml</dc:format>
        <dc:creator>
          <cc:Agent>
            <dc:title>Matplotlib v3.3.4, https://matplotlib.org/</dc:title>
          </cc:Agent>
        </dc:creator>
      </cc:Work>
    </rdf:RDF>
  </metadata>
  <defs
     id="defs755">
    <style
       type="text/css"
       id="style753">*{stroke-linecap:butt;stroke-linejoin:round;}</style>
  </defs>
  <rect
     style="fill:#ffffff;stroke-width:0.773683;stroke:none;fill-opacity:1"
     id="rect2828"
     width="576"
     height="576"
     x="0"
     y="0" />
  <g
     id="figure_1">
    <g
       id="patch_1">
      <path
         d="M 0 576  L 576 576  L 576 0  L 0 0  z "
         style="fill:none;"
         id="path757" />
    </g>
    <g
       id="axes_1">
      <g
         id="patch_2">
        <path
           d="M 72 504  L 518.4 504  L 518.4 69.12  L 72 69.12  z "
           style="fill:#ffffff;"
           id="path760" />
      </g>
      <g
         id="matplotlib.axis_1">
        <g
           id="xtick_1">
          <g
             id="line2d_1">
            <path
               clip-path="url(#p3754c2c06f)"
               d="M 72 504  L 72 69.12  "
               style="fill:none;stroke:#b0b0b0;stroke-linecap:square;stroke-width:0.8;"
               id="path763" />
          </g>
          <g
             id="line2d_2">
            <defs
               id="defs767">
              <path
                 d="M 0 2.5  L 0 -2.5  "
                 id="m1f275f8897"
                 style="stroke:#000000;stroke-width:1.2;" />
            </defs>
            <g
               id="g771">
              <use
                 style="stroke:#000000;stroke-width:1.2;"
                 x="72"
                 xlink:href="#m1f275f8897"
                 y="504"
                 id="use769" />
            </g>
          </g>
          <g
             id="line2d_3">
            <g
               id="g776">
              <use
                 style="stroke:#000000;stroke-width:1.2;"
                 x="72"
                 xlink:href="#m1f275f8897"
                 y="69.12"
                 id="use774" />
            </g>
          </g>
          <g
             id="text_1">
            <!-- $\mathdefault{−40}$ -->
            <g
               transform="translate(59.397335 520.221572)scale(0.144 -0.144)"
               id="g790">
              <defs
                 id="defs782">
                <path
                   d="M 65.90625 23  C 67.59375 23 69.40625 23 69.40625 25  C 69.40625 27 67.59375 27 65.90625 27  L 11.796875 27  C 10.09375 27 8.296875 27 8.296875 25  C 8.296875 23 10.09375 23 11.796875 23  z "
                   id="CMSY10-0" />
                <path
                   d="M 33.59375 64.40625  C 33.59375 66.5 33.5 66.5 31.703125 66.5  L 2 19.59375  L 2 17  L 27.796875 17  L 27.796875 7.140625  C 27.796875 3.5 27.59375 2.5 20.59375 2.5  L 18.703125 2.5  L 18.703125 0  C 21.90625 0 27.296875 0 30.703125 0  C 34.09375 0 39.5 0 42.703125 0  L 42.703125 2.5  L 40.796875 2.5  C 33.796875 2.5 33.59375 3.5 33.59375 7.140625  L 33.59375 17  L 43.796875 17  L 43.796875 19.59375  L 33.59375 19.59375  z M 28.09375 57.859375  L 28.09375 19.59375  L 4 19.59375  z "
                   id="CMR17-52" />
                <path
                   d="M 42 31.640625  C 42 37.75 41.90625 48.125 37.703125 56.109375  C 34 63.109375 28.09375 65.59375 22.90625 65.59375  C 18.09375 65.59375 12 63.40625 8.203125 56.203125  C 4.203125 48.71875 3.796875 39.4375 3.796875 31.640625  C 3.796875 25.953125 3.90625 17.28125 7 9.671875  C 11.296875 -0.609375 19 -2 22.90625 -2  C 27.5 -2 34.5 -0.109375 38.59375 9.375  C 41.59375 16.28125 42 24.359375 42 31.640625  z M 22.90625 -0.40625  C 16.5 -0.40625 12.703125 5.078125 11.296875 12.6875  C 10.203125 18.5625 10.203125 27.15625 10.203125 32.75  C 10.203125 40.4375 10.203125 46.828125 11.5 52.921875  C 13.40625 61.390625 19 64 22.90625 64  C 27 64 32.296875 61.296875 34.203125 53.125  C 35.5 47.4375 35.59375 40.734375 35.59375 32.75  C 35.59375 26.25 35.59375 18.265625 34.40625 12.375  C 32.296875 1.484375 26.40625 -0.40625 22.90625 -0.40625  z "
                   id="CMR17-48" />
              </defs>
              <use
                 transform="scale(0.996264)"
                 xlink:href="#CMSY10-0"
                 id="use784" />
              <use
                 transform="translate(77.487468 0)scale(0.996264)"
                 xlink:href="#CMR17-52"
                 id="use786" />
              <use
                 transform="translate(123.177945 0)scale(0.996264)"
                 xlink:href="#CMR17-48"
                 id="use788" />
            </g>
          </g>
        </g>
        <g
           id="xtick_2">
          <g
             id="line2d_4">
            <path
               clip-path="url(#p3754c2c06f)"
               d="M 127.8 504  L 127.8 69.12  "
               style="fill:none;stroke:#b0b0b0;stroke-linecap:square;stroke-width:0.8;"
               id="path794" />
          </g>
          <g
             id="line2d_5">
            <g
               id="g799">
              <use
                 style="stroke:#000000;stroke-width:1.2;"
                 x="127.8"
                 xlink:href="#m1f275f8897"
                 y="504"
                 id="use797" />
            </g>
          </g>
          <g
             id="line2d_6">
            <g
               id="g804">
              <use
                 style="stroke:#000000;stroke-width:1.2;"
                 x="127.8"
                 xlink:href="#m1f275f8897"
                 y="69.12"
                 id="use802" />
            </g>
          </g>
          <g
             id="text_2">
            <!-- $\mathdefault{−30}$ -->
            <g
               transform="translate(115.197335 520.221572)scale(0.144 -0.144)"
               id="g816">
              <defs
                 id="defs808">
                <path
                   d="M 22.09375 33.703125  C 31 33.703125 34.90625 25.96875 34.90625 17.03125  C 34.90625 5 28.5 0.390625 22.703125 0.390625  C 17.40625 0.390625 8.796875 3.03125 6.09375 10.828125  C 6.59375 10.625 7.09375 10.625 7.59375 10.625  C 10 10.625 11.796875 12.21875 11.796875 14.8125  C 11.796875 17.703125 9.59375 19 7.59375 19  C 5.90625 19 3.296875 18.203125 3.296875 14.46875  C 3.296875 5.234375 12.296875 -2 22.90625 -2  C 34 -2 42.5 6.71875 42.5 16.953125  C 42.5 26.671875 34.5 33.703125 25 34.796875  C 32.59375 36.375 39.90625 43.0625 39.90625 52.015625  C 39.90625 59.6875 32 65.296875 23 65.296875  C 13.90625 65.296875 5.90625 59.828125 5.90625 52.015625  C 5.90625 48.59375 8.5 48 9.796875 48  C 11.90625 48 13.703125 49.296875 13.703125 51.890625  C 13.703125 54.46875 11.90625 55.765625 9.796875 55.765625  C 9.40625 55.765625 8.90625 55.765625 8.5 55.578125  C 11.40625 61.859375 19.296875 63 22.796875 63  C 26.296875 63 32.90625 61.328125 32.90625 51.875  C 32.90625 49.109375 32.5 44.1875 29.09375 39.84375  C 26.09375 36 22.703125 36 19.40625 35.6875  C 18.90625 35.6875 16.59375 35.453125 16.203125 35.453125  C 15.5 35.359375 15.09375 35.265625 15.09375 34.5  C 15.09375 33.796875 15.203125 33.703125 17.203125 33.703125  z "
                   id="CMR17-51" />
              </defs>
              <use
                 transform="scale(0.996264)"
                 xlink:href="#CMSY10-0"
                 id="use810" />
              <use
                 transform="translate(77.487468 0)scale(0.996264)"
                 xlink:href="#CMR17-51"
                 id="use812" />
              <use
                 transform="translate(123.177945 0)scale(0.996264)"
                 xlink:href="#CMR17-48"
                 id="use814" />
            </g>
          </g>
        </g>
        <g
           id="xtick_3">
          <g
             id="line2d_7">
            <path
               clip-path="url(#p3754c2c06f)"
               d="M 183.6 504  L 183.6 69.12  "
               style="fill:none;stroke:#b0b0b0;stroke-linecap:square;stroke-width:0.8;"
               id="path820" />
          </g>
          <g
             id="line2d_8">
            <g
               id="g825">
              <use
                 style="stroke:#000000;stroke-width:1.2;"
                 x="183.6"
                 xlink:href="#m1f275f8897"
                 y="504"
                 id="use823" />
            </g>
          </g>
          <g
             id="line2d_9">
            <g
               id="g830">
              <use
                 style="stroke:#000000;stroke-width:1.2;"
                 x="183.6"
                 xlink:href="#m1f275f8897"
                 y="69.12"
                 id="use828" />
            </g>
          </g>
          <g
             id="text_3">
            <!-- $\mathdefault{−20}$ -->
            <g
               transform="translate(170.997335 520.221572)scale(0.144 -0.144)"
               id="g842">
              <defs
                 id="defs834">
                <path
                   d="M 41.703125 15.453125  L 39.90625 15.453125  C 38.90625 8.375 38.09375 7.171875 37.703125 6.5625  C 37.203125 5.765625 30 5.765625 28.59375 5.765625  L 9.40625 5.765625  C 13 9.671875 20 16.75 28.5 24.953125  C 34.59375 30.734375 41.703125 37.53125 41.703125 47.421875  C 41.703125 59.21875 32.296875 66 21.796875 66  C 10.796875 66 4.09375 56.3125 4.09375 47.34375  C 4.09375 43.4375 7 42.9375 8.203125 42.9375  C 9.203125 42.9375 12.203125 43.546875 12.203125 47.03125  C 12.203125 50.109375 9.59375 51 8.203125 51  C 7.59375 51 7 50.90625 6.59375 50.703125  C 8.5 59.21875 14.296875 63.40625 20.40625 63.40625  C 29.09375 63.40625 34.796875 56.515625 34.796875 47.421875  C 34.796875 38.734375 29.703125 31.25 24 24.75  L 4.09375 2.28125  L 4.09375 0  L 39.296875 0  z "
                   id="CMR17-50" />
              </defs>
              <use
                 transform="scale(0.996264)"
                 xlink:href="#CMSY10-0"
                 id="use836" />
              <use
                 transform="translate(77.487468 0)scale(0.996264)"
                 xlink:href="#CMR17-50"
                 id="use838" />
              <use
                 transform="translate(123.177945 0)scale(0.996264)"
                 xlink:href="#CMR17-48"
                 id="use840" />
            </g>
          </g>
        </g>
        <g
           id="xtick_4">
          <g
             id="line2d_10">
            <path
               clip-path="url(#p3754c2c06f)"
               d="M 239.4 504  L 239.4 69.12  "
               style="fill:none;stroke:#b0b0b0;stroke-linecap:square;stroke-width:0.8;"
               id="path846" />
          </g>
          <g
             id="line2d_11">
            <g
               id="g851">
              <use
                 style="stroke:#000000;stroke-width:1.2;"
                 x="239.4"
                 xlink:href="#m1f275f8897"
                 y="504"
                 id="use849" />
            </g>
          </g>
          <g
             id="line2d_12">
            <g
               id="g856">
              <use
                 style="stroke:#000000;stroke-width:1.2;"
                 x="239.4"
                 xlink:href="#m1f275f8897"
                 y="69.12"
                 id="use854" />
            </g>
          </g>
          <g
             id="text_4">
            <!-- $\mathdefault{−10}$ -->
            <g
               transform="translate(226.797335 520.221572)scale(0.144 -0.144)"
               id="g868">
              <defs
                 id="defs860">
                <path
                   d="M 26.59375 63.40625  C 26.59375 65.5 26.5 65.5 25.09375 65.5  C 21.203125 61.1875 15.296875 59.796875 9.703125 59.796875  C 9.40625 59.796875 8.90625 59.796875 8.796875 59.5  C 8.703125 59.296875 8.703125 59.09375 8.703125 57  C 11.796875 57 17 57.59375 21 59.984375  L 21 7.203125  C 21 3.6875 20.796875 2.5 12.203125 2.5  L 9.203125 2.5  L 9.203125 0  C 14 0 19 0 23.796875 0  C 28.59375 0 33.59375 0 38.40625 0  L 38.40625 2.5  L 35.40625 2.5  C 26.796875 2.5 26.59375 3.59375 26.59375 7.15625  z "
                   id="CMR17-49" />
              </defs>
              <use
                 transform="scale(0.996264)"
                 xlink:href="#CMSY10-0"
                 id="use862" />
              <use
                 transform="translate(77.487468 0)scale(0.996264)"
                 xlink:href="#CMR17-49"
                 id="use864" />
              <use
                 transform="translate(123.177945 0)scale(0.996264)"
                 xlink:href="#CMR17-48"
                 id="use866" />
            </g>
          </g>
        </g>
        <g
           id="xtick_5">
          <g
             id="line2d_13">
            <path
               clip-path="url(#p3754c2c06f)"
               d="M 295.2 504  L 295.2 69.12  "
               style="fill:none;stroke:#b0b0b0;stroke-linecap:square;stroke-width:0.8;"
               id="path872" />
          </g>
          <g
             id="line2d_14">
            <g
               id="g877">
              <use
                 style="stroke:#000000;stroke-width:1.2;"
                 x="295.2"
                 xlink:href="#m1f275f8897"
                 y="504"
                 id="use875" />
            </g>
          </g>
          <g
             id="line2d_15">
            <g
               id="g882">
              <use
                 style="stroke:#000000;stroke-width:1.2;"
                 x="295.2"
                 xlink:href="#m1f275f8897"
                 y="69.12"
                 id="use880" />
            </g>
          </g>
          <g
             id="text_5">
            <!-- $\mathdefault{0}$ -->
            <g
               transform="translate(291.688213 520.221572)scale(0.144 -0.144)"
               id="g887">
              <use
                 transform="scale(0.996264)"
                 xlink:href="#CMR17-48"
                 id="use885" />
            </g>
          </g>
        </g>
        <g
           id="xtick_6">
          <g
             id="line2d_16">
            <path
               clip-path="url(#p3754c2c06f)"
               d="M 351 504  L 351 69.12  "
               style="fill:none;stroke:#b0b0b0;stroke-linecap:square;stroke-width:0.8;"
               id="path891" />
          </g>
          <g
             id="line2d_17">
            <g
               id="g896">
              <use
                 style="stroke:#000000;stroke-width:1.2;"
                 x="351"
                 xlink:href="#m1f275f8897"
                 y="504"
                 id="use894" />
            </g>
          </g>
          <g
             id="line2d_18">
            <g
               id="g901">
              <use
                 style="stroke:#000000;stroke-width:1.2;"
                 x="351"
                 xlink:href="#m1f275f8897"
                 y="69.12"
                 id="use899" />
            </g>
          </g>
          <g
             id="text_6">
            <!-- $\mathdefault{10}$ -->
            <g
               transform="translate(343.976427 520.221572)scale(0.144 -0.144)"
               id="g908">
              <use
                 transform="scale(0.996264)"
                 xlink:href="#CMR17-49"
                 id="use904" />
              <use
                 transform="translate(45.690477 0)scale(0.996264)"
                 xlink:href="#CMR17-48"
                 id="use906" />
            </g>
          </g>
        </g>
        <g
           id="xtick_7">
          <g
             id="line2d_19">
            <path
               clip-path="url(#p3754c2c06f)"
               d="M 406.8 504  L 406.8 69.12  "
               style="fill:none;stroke:#b0b0b0;stroke-linecap:square;stroke-width:0.8;"
               id="path912" />
          </g>
          <g
             id="line2d_20">
            <g
               id="g917">
              <use
                 style="stroke:#000000;stroke-width:1.2;"
                 x="406.8"
                 xlink:href="#m1f275f8897"
                 y="504"
                 id="use915" />
            </g>
          </g>
          <g
             id="line2d_21">
            <g
               id="g922">
              <use
                 style="stroke:#000000;stroke-width:1.2;"
                 x="406.8"
                 xlink:href="#m1f275f8897"
                 y="69.12"
                 id="use920" />
            </g>
          </g>
          <g
             id="text_7">
            <!-- $\mathdefault{20}$ -->
            <g
               transform="translate(399.776427 520.221572)scale(0.144 -0.144)"
               id="g929">
              <use
                 transform="scale(0.996264)"
                 xlink:href="#CMR17-50"
                 id="use925" />
              <use
                 transform="translate(45.690477 0)scale(0.996264)"
                 xlink:href="#CMR17-48"
                 id="use927" />
            </g>
          </g>
        </g>
        <g
           id="xtick_8">
          <g
             id="line2d_22">
            <path
               clip-path="url(#p3754c2c06f)"
               d="M 462.6 504  L 462.6 69.12  "
               style="fill:none;stroke:#b0b0b0;stroke-linecap:square;stroke-width:0.8;"
               id="path933" />
          </g>
          <g
             id="line2d_23">
            <g
               id="g938">
              <use
                 style="stroke:#000000;stroke-width:1.2;"
                 x="462.6"
                 xlink:href="#m1f275f8897"
                 y="504"
                 id="use936" />
            </g>
          </g>
          <g
             id="line2d_24">
            <g
               id="g943">
              <use
                 style="stroke:#000000;stroke-width:1.2;"
                 x="462.6"
                 xlink:href="#m1f275f8897"
                 y="69.12"
                 id="use941" />
            </g>
          </g>
          <g
             id="text_8">
            <!-- $\mathdefault{30}$ -->
            <g
               transform="translate(455.576427 520.221572)scale(0.144 -0.144)"
               id="g950">
              <use
                 transform="scale(0.996264)"
                 xlink:href="#CMR17-51"
                 id="use946" />
              <use
                 transform="translate(45.690477 0)scale(0.996264)"
                 xlink:href="#CMR17-48"
                 id="use948" />
            </g>
          </g>
        </g>
        <g
           id="xtick_9">
          <g
             id="line2d_25">
            <path
               clip-path="url(#p3754c2c06f)"
               d="M 518.4 504  L 518.4 69.12  "
               style="fill:none;stroke:#b0b0b0;stroke-linecap:square;stroke-width:0.8;"
               id="path954" />
          </g>
          <g
             id="line2d_26">
            <g
               id="g959">
              <use
                 style="stroke:#000000;stroke-width:1.2;"
                 x="518.4"
                 xlink:href="#m1f275f8897"
                 y="504"
                 id="use957" />
            </g>
          </g>
          <g
             id="line2d_27">
            <g
               id="g964">
              <use
                 style="stroke:#000000;stroke-width:1.2;"
                 x="518.4"
                 xlink:href="#m1f275f8897"
                 y="69.12"
                 id="use962" />
            </g>
          </g>
          <g
             id="text_9">
            <!-- $\mathdefault{40}$ -->
            <g
               transform="translate(511.376427 520.221572)scale(0.144 -0.144)"
               id="g971">
              <use
                 transform="scale(0.996264)"
                 xlink:href="#CMR17-52"
                 id="use967" />
              <use
                 transform="translate(45.690477 0)scale(0.996264)"
                 xlink:href="#CMR17-48"
                 id="use969" />
            </g>
          </g>
        </g>
        <g
           id="text_10">
          <!-- $\alpha$ dihedral (deg) -->
          <g
             transform="translate(244.5144 537.764278)scale(0.144 -0.144)"
             id="g1016">
            <defs
               id="defs986">
              <path
                 d="M 46.296875 25.25  C 46.296875 34.921875 40.796875 43.984375 30.203125 43.984375  C 17.09375 43.984375 4 29.71875 4 15.5625  C 4 6.890625 9.40625 -1 19.59375 -1  C 25.796875 -1 33.203125 1.390625 40.296875 7.375  C 41.703125 1.796875 44.796875 -1 49.09375 -1  C 54.5 -1 57.203125 4.59375 57.203125 5.890625  C 57.203125 6.78125 56.5 6.78125 56.203125 6.78125  C 55.40625 6.78125 55.296875 6.484375 55 5.6875  C 54.09375 3.1875 51.796875 1 49.40625 1  C 46.296875 1 46.296875 7.375 46.296875 13.46875  C 56.5 25.640625 58.90625 38.21875 58.90625 38.3125  C 58.90625 39.21875 58.09375 39.21875 57.796875 39.21875  C 56.90625 39.21875 56.796875 38.921875 56.40625 37.125  C 55.09375 32.734375 52.5 24.953125 46.296875 16.765625  z M 40 9.78125  C 31.203125 1.890625 23.296875 1 19.796875 1  C 12.703125 1 10.703125 7.28125 10.703125 11.96875  C 10.703125 16.25 12.90625 26.4375 16 31.9375  C 20.09375 38.921875 25.703125 42 30.203125 42  C 39.90625 42 39.90625 29.328125 39.90625 20.953125  C 39.90625 18.46875 39.796875 15.875 39.796875 13.375  C 39.796875 11.375 39.90625 10.875 40 9.78125  z "
                 id="CMMI12-11" />
              <path
                 d="M 49.5 73  L 41.203125 73  L 41.203125 45.890625  C 37.703125 51.1875 32.09375 54 25.09375 54  C 11.5 54 2.59375 43.140625 2.59375 26.484375  C 2.59375 8.84375 11.296875 -2 25.40625 -2  C 32.59375 -2 37.59375 0.703125 42.09375 7.203125  L 42.09375 -0.03125  L 49.5 -0.03125  z M 26.5 46.1875  C 35.5 46.1875 41.203125 38.234375 41.203125 25.796875  C 41.203125 13.765625 35.40625 5.8125 26.59375 5.8125  C 17.40625 5.8125 11.296875 13.859375 11.296875 26  C 11.296875 38.125 17.40625 46.1875 26.5 46.1875  z "
                 id="Nimbus_Sans_L_Regular-100" />
              <path
                 d="M 15 52.484375  L 6.703125 52.484375  L 6.703125 0  L 15 0  z M 15 73  L 6.59375 73  L 6.59375 62.484375  L 15 62.484375  z "
                 id="Nimbus_Sans_L_Regular-105" />
              <path
                 d="M 7 73  L 7 -0.03125  L 15.296875 -0.03125  L 15.296875 28.9375  C 15.296875 39.671875 20.90625 46.6875 29.5 46.6875  C 32.203125 46.6875 34.90625 45.78125 36.90625 44.28125  C 39.296875 42.578125 40.296875 40.0625 40.296875 36.359375  L 40.296875 -0.03125  L 48.59375 -0.03125  L 48.59375 39.65625  C 48.59375 48.484375 42.296875 54 32.09375 54  C 24.703125 54 20.203125 51.6875 15.296875 45.28125  L 15.296875 73  z "
                 id="Nimbus_Sans_L_Regular-104" />
              <path
                 d="M 51.296875 23.890625  C 51.296875 31.78125 50.703125 36.53125 49.203125 40.375  C 45.796875 48.859375 37.796875 54 28 54  C 13.40625 54 4 42.84375 4 25.703125  C 4 8.546875 13.09375 -2 27.796875 -2  C 39.796875 -2 48.09375 4.84375 50.203125 16.3125  L 41.796875 16.3125  C 39.5 9.34375 34.796875 5.703125 28.09375 5.703125  C 22.796875 5.703125 18.296875 8.125 15.5 12.578125  C 13.5 15.59375 12.796875 18.640625 12.703125 23.890625  z M 12.90625 31  C 13.59375 40.265625 19.5 46.28125 27.90625 46.28125  C 36.09375 46.28125 42.40625 39.53125 42.40625 31  C 42.40625 31 42.40625 31 42.296875 31  z "
                 id="Nimbus_Sans_L_Regular-101" />
              <path
                 d="M 6.90625 52.484375  L 6.90625 0  L 15.296875 0  L 15.296875 27.203125  C 15.296875 34.703125 17.203125 39.609375 21.203125 42.5  C 23.796875 44.40625 26.296875 45 32.09375 45  L 32.09375 53.625  C 30.703125 53.8125 30 53.8125 28.90625 53.8125  C 23.5 53.8125 19.40625 50.625 14.59375 42.90625  L 14.59375 52.484375  z "
                 id="Nimbus_Sans_L_Regular-114" />
              <path
                 d="M 53.5 5.203125  C 52.59375 5 52.203125 5 51.703125 5  C 48.796875 5 47.203125 6.484375 47.203125 9.078125  L 47.203125 39.765625  C 47.203125 49.015625 40.40625 54 27.5 54  C 19.90625 54 13.59375 51.8125 10.09375 47.90625  C 7.703125 45.203125 6.703125 42.21875 6.5 37.03125  L 14.90625 37.03125  C 15.59375 43.390625 19.40625 46.28125 27.203125 46.28125  C 34.703125 46.28125 38.90625 43.484375 38.90625 38.515625  L 38.90625 36.328125  C 38.90625 32.828125 36.796875 31.34375 30.203125 30.546875  C 18.40625 29.0625 16.59375 28.65625 13.40625 27.359375  C 7.296875 24.875 4.203125 20.1875 4.203125 13.421875  C 4.203125 3.96875 10.796875 -2 21.40625 -2  C 28 -2 33.296875 0.296875 39.203125 5.703125  C 39.796875 0.390625 42.40625 -2 47.796875 -2  C 49.5 -2 50.796875 -1.8125 53.5 -1.09375  z M 38.90625 16.75  C 38.90625 13.953125 38.09375 12.265625 35.59375 9.984375  C 32.203125 6.890625 28.09375 5.3125 23.203125 5.3125  C 16.703125 5.3125 12.90625 8.390625 12.90625 13.65625  C 12.90625 19.140625 16.59375 21.921875 25.5 23.21875  C 34.296875 24.40625 36.09375 24.8125 38.90625 26.09375  z "
                 id="Nimbus_Sans_L_Regular-97" />
              <path
                 d="M 15.203125 73  L 6.796875 73  L 6.796875 -0.03125  L 15.203125 -0.03125  z "
                 id="Nimbus_Sans_L_Regular-108" />
              <path
                 d="M 23.59375 73  C 13.59375 59.84375 7.296875 41.5625 7.296875 25.796875  C 7.296875 9.9375 13.59375 -8.34375 23.59375 -21.5  L 29.09375 -21.5  C 20.296875 -7.140625 15.40625 9.734375 15.40625 25.796875  C 15.40625 41.765625 20.296875 58.734375 29.09375 73  z "
                 id="Nimbus_Sans_L_Regular-40" />
              <path
                 d="M 41.203125 52.203125  L 41.203125 44.59375  C 37 50.8125 31.90625 53.71875 25.203125 53.71875  C 11.90625 53.71875 2.90625 42.0625 2.90625 25  C 2.90625 16.375 5.203125 9.34375 9.5 4.3125  C 13.40625 -0.109375 19 -2.703125 24.5 -2.703125  C 31.09375 -2.703125 35.703125 0.09375 40.40625 6.703125  L 40.40625 4.03125  C 40.40625 -3 39.5 -7.265625 37.40625 -10.140625  C 35.203125 -13.1875 30.90625 -14.984375 25.796875 -14.984375  C 22 -14.984375 18.59375 -14 16.296875 -12.234375  C 14.40625 -10.75 13.59375 -9.375 13.09375 -6.34375  L 4.59375 -6.34375  C 5.5 -16.140625 13.203125 -22 25.5 -22  C 33.296875 -22 40 -19.484375 43.40625 -15.296875  C 47.40625 -10.484375 48.90625 -3.890625 48.90625 8.40625  L 48.90625 52.203125  z M 26.09375 46  C 35.09375 46 40.40625 38.359375 40.40625 25.203125  C 40.40625 12.625 35 5 26.203125 5  C 17.09375 5 11.59375 12.75 11.59375 25.5  C 11.59375 38.15625 17.203125 46 26.09375 46  z "
                 id="Nimbus_Sans_L_Regular-103" />
              <path
                 d="M 9.296875 -21.5  C 19.296875 -8.34375 25.59375 9.9375 25.59375 25.6875  C 25.59375 41.5625 19.296875 59.84375 9.296875 73  L 3.796875 73  C 12.59375 58.640625 17.5 41.765625 17.5 25.6875  C 17.5 9.734375 12.59375 -7.25 3.796875 -21.5  z "
                 id="Nimbus_Sans_L_Regular-41" />
            </defs>
            <use
               transform="scale(0.996264)"
               xlink:href="#CMMI12-11"
               id="use988" />
            <use
               transform="translate(90.376192 0)scale(0.996264)"
               xlink:href="#Nimbus_Sans_L_Regular-100"
               id="use990" />
            <use
               transform="translate(145.767869 0)scale(0.996264)"
               xlink:href="#Nimbus_Sans_L_Regular-105"
               id="use992" />
            <use
               transform="translate(167.884654 0)scale(0.996264)"
               xlink:href="#Nimbus_Sans_L_Regular-104"
               id="use994" />
            <use
               transform="translate(223.276331 0)scale(0.996264)"
               xlink:href="#Nimbus_Sans_L_Regular-101"
               id="use996" />
            <use
               transform="translate(278.668008 0)scale(0.996264)"
               xlink:href="#Nimbus_Sans_L_Regular-100"
               id="use998" />
            <use
               transform="translate(334.059685 0)scale(0.996264)"
               xlink:href="#Nimbus_Sans_L_Regular-114"
               id="use1000" />
            <use
               transform="translate(366.238818 0)scale(0.996264)"
               xlink:href="#Nimbus_Sans_L_Regular-97"
               id="use1002" />
            <use
               transform="translate(421.630495 0)scale(0.996264)"
               xlink:href="#Nimbus_Sans_L_Regular-108"
               id="use1004" />
            <use
               transform="translate(471.442448 0)scale(0.996264)"
               xlink:href="#Nimbus_Sans_L_Regular-40"
               id="use1006" />
            <use
               transform="translate(504.617678 0)scale(0.996264)"
               xlink:href="#Nimbus_Sans_L_Regular-100"
               id="use1008" />
            <use
               transform="translate(560.009355 0)scale(0.996264)"
               xlink:href="#Nimbus_Sans_L_Regular-101"
               id="use1010" />
            <use
               transform="translate(615.401032 0)scale(0.996264)"
               xlink:href="#Nimbus_Sans_L_Regular-103"
               id="use1012" />
            <use
               transform="translate(670.792709 0)scale(0.996264)"
               xlink:href="#Nimbus_Sans_L_Regular-41"
               id="use1014" />
          </g>
        </g>
      </g>
      <g
         id="matplotlib.axis_2">
        <g
           id="ytick_1">
          <g
             id="line2d_28">
            <path
               clip-path="url(#p3754c2c06f)"
               d="M 72 504  L 518.4 504  "
               style="fill:none;stroke:#b0b0b0;stroke-linecap:square;stroke-width:0.8;"
               id="path1020" />
          </g>
          <g
             id="line2d_29">
            <defs
               id="defs1024">
              <path
                 d="M 2.5 0  L -2.5 -0  "
                 id="mcffd63a712"
                 style="stroke:#000000;stroke-width:1.2;" />
            </defs>
            <g
               id="g1028">
              <use
                 style="stroke:#000000;stroke-width:1.2;"
                 x="72"
                 xlink:href="#mcffd63a712"
                 y="504"
                 id="use1026" />
            </g>
          </g>
          <g
             id="line2d_30">
            <g
               id="g1033">
              <use
                 style="stroke:#000000;stroke-width:1.2;"
                 x="518.4"
                 xlink:href="#mcffd63a712"
                 y="504"
                 id="use1031" />
            </g>
          </g>
          <g
             id="text_11">
            <!-- $\mathdefault{−20}$ -->
            <g
               transform="translate(40.79467 509.110786)scale(0.144 -0.144)"
               id="g1042">
              <use
                 transform="scale(0.996264)"
                 xlink:href="#CMSY10-0"
                 id="use1036" />
              <use
                 transform="translate(77.487468 0)scale(0.996264)"
                 xlink:href="#CMR17-50"
                 id="use1038" />
              <use
                 transform="translate(123.177945 0)scale(0.996264)"
                 xlink:href="#CMR17-48"
                 id="use1040" />
            </g>
          </g>
        </g>
        <g
           id="ytick_2">
          <g
             id="line2d_31">
            <path
               clip-path="url(#p3754c2c06f)"
               d="M 72 449.64  L 518.4 449.64  "
               style="fill:none;stroke:#b0b0b0;stroke-linecap:square;stroke-width:0.8;"
               id="path1046" />
          </g>
          <g
             id="line2d_32">
            <g
               id="g1051">
              <use
                 style="stroke:#000000;stroke-width:1.2;"
                 x="72"
                 xlink:href="#mcffd63a712"
                 y="449.64"
                 id="use1049" />
            </g>
          </g>
          <g
             id="line2d_33">
            <g
               id="g1056">
              <use
                 style="stroke:#000000;stroke-width:1.2;"
                 x="518.4"
                 xlink:href="#mcffd63a712"
                 y="449.64"
                 id="use1054" />
            </g>
          </g>
          <g
             id="text_12">
            <!-- $\mathdefault{−15}$ -->
            <g
               transform="translate(40.79467 454.750786)scale(0.144 -0.144)"
               id="g1068">
              <defs
                 id="defs1060">
                <path
                   d="M 11.40625 57.6875  C 12.40625 57.28125 16.5 56 20.703125 56  C 30 56 35.09375 61.109375 38 64.0625  C 38 64.953125 38 65.5 37.40625 65.5  C 37.296875 65.5 37.09375 65.5 36.296875 65.046875  C 32.796875 63.40625 28.703125 62.078125 23.703125 62.078125  C 20.703125 62.078125 16.203125 62.484375 11.296875 64.671875  C 10.203125 65.171875 10 65.171875 9.90625 65.171875  C 9.40625 65.171875 9.296875 65.0625 9.296875 63.078125  L 9.296875 34.421875  C 9.296875 32.640625 9.296875 32.140625 10.296875 32.140625  C 10.796875 32.140625 11 32.34375 11.5 33.03125  C 14.703125 37.515625 19.09375 39.40625 24.09375 39.40625  C 27.59375 39.40625 35.09375 37.21875 35.09375 20.140625  C 35.09375 16.953125 35.09375 11.171875 32.09375 6.578125  C 29.59375 2.484375 25.703125 0.390625 21.40625 0.390625  C 14.796875 0.390625 8.09375 5 6.296875 12.71875  C 6.703125 12.609375 7.5 12.421875 7.90625 12.421875  C 9.203125 12.421875 11.703125 13.125 11.703125 16.21875  C 11.703125 18.90625 9.796875 20 7.90625 20  C 5.59375 20 4.09375 18.59375 4.09375 15.796875  C 4.09375 7.09375 11 -2 21.59375 -2  C 31.90625 -2 41.703125 6.875 41.703125 19.75  C 41.703125 31.71875 33.90625 41 24.203125 41  C 19.09375 41 14.796875 39.109375 11.40625 35.53125  z "
                   id="CMR17-53" />
              </defs>
              <use
                 transform="scale(0.996264)"
                 xlink:href="#CMSY10-0"
                 id="use1062" />
              <use
                 transform="translate(77.487468 0)scale(0.996264)"
                 xlink:href="#CMR17-49"
                 id="use1064" />
              <use
                 transform="translate(123.177945 0)scale(0.996264)"
                 xlink:href="#CMR17-53"
                 id="use1066" />
            </g>
          </g>
        </g>
        <g
           id="ytick_3">
          <g
             id="line2d_34">
            <path
               clip-path="url(#p3754c2c06f)"
               d="M 72 395.28  L 518.4 395.28  "
               style="fill:none;stroke:#b0b0b0;stroke-linecap:square;stroke-width:0.8;"
               id="path1072" />
          </g>
          <g
             id="line2d_35">
            <g
               id="g1077">
              <use
                 style="stroke:#000000;stroke-width:1.2;"
                 x="72"
                 xlink:href="#mcffd63a712"
                 y="395.28"
                 id="use1075" />
            </g>
          </g>
          <g
             id="line2d_36">
            <g
               id="g1082">
              <use
                 style="stroke:#000000;stroke-width:1.2;"
                 x="518.4"
                 xlink:href="#mcffd63a712"
                 y="395.28"
                 id="use1080" />
            </g>
          </g>
          <g
             id="text_13">
            <!-- $\mathdefault{−10}$ -->
            <g
               transform="translate(40.79467 400.390786)scale(0.144 -0.144)"
               id="g1091">
              <use
                 transform="scale(0.996264)"
                 xlink:href="#CMSY10-0"
                 id="use1085" />
              <use
                 transform="translate(77.487468 0)scale(0.996264)"
                 xlink:href="#CMR17-49"
                 id="use1087" />
              <use
                 transform="translate(123.177945 0)scale(0.996264)"
                 xlink:href="#CMR17-48"
                 id="use1089" />
            </g>
          </g>
        </g>
        <g
           id="ytick_4">
          <g
             id="line2d_37">
            <path
               clip-path="url(#p3754c2c06f)"
               d="M 72 340.92  L 518.4 340.92  "
               style="fill:none;stroke:#b0b0b0;stroke-linecap:square;stroke-width:0.8;"
               id="path1095" />
          </g>
          <g
             id="line2d_38">
            <g
               id="g1100">
              <use
                 style="stroke:#000000;stroke-width:1.2;"
                 x="72"
                 xlink:href="#mcffd63a712"
                 y="340.92"
                 id="use1098" />
            </g>
          </g>
          <g
             id="line2d_39">
            <g
               id="g1105">
              <use
                 style="stroke:#000000;stroke-width:1.2;"
                 x="518.4"
                 xlink:href="#mcffd63a712"
                 y="340.92"
                 id="use1103" />
            </g>
          </g>
          <g
             id="text_14">
            <!-- $\mathdefault{−5}$ -->
            <g
               transform="translate(47.818243 346.030786)scale(0.144 -0.144)"
               id="g1112">
              <use
                 transform="scale(0.996264)"
                 xlink:href="#CMSY10-0"
                 id="use1108" />
              <use
                 transform="translate(77.487468 0)scale(0.996264)"
                 xlink:href="#CMR17-53"
                 id="use1110" />
            </g>
          </g>
        </g>
        <g
           id="ytick_5">
          <g
             id="line2d_40">
            <path
               clip-path="url(#p3754c2c06f)"
               d="M 72 286.56  L 518.4 286.56  "
               style="fill:none;stroke:#b0b0b0;stroke-linecap:square;stroke-width:0.8;"
               id="path1116" />
          </g>
          <g
             id="line2d_41">
            <g
               id="g1121">
              <use
                 style="stroke:#000000;stroke-width:1.2;"
                 x="72"
                 xlink:href="#mcffd63a712"
                 y="286.56"
                 id="use1119" />
            </g>
          </g>
          <g
             id="line2d_42">
            <g
               id="g1126">
              <use
                 style="stroke:#000000;stroke-width:1.2;"
                 x="518.4"
                 xlink:href="#mcffd63a712"
                 y="286.56"
                 id="use1124" />
            </g>
          </g>
          <g
             id="text_15">
            <!-- $\mathdefault{0}$ -->
            <g
               transform="translate(58.976427 291.670786)scale(0.144 -0.144)"
               id="g1131">
              <use
                 transform="scale(0.996264)"
                 xlink:href="#CMR17-48"
                 id="use1129" />
            </g>
          </g>
        </g>
        <g
           id="ytick_6">
          <g
             id="line2d_43">
            <path
               clip-path="url(#p3754c2c06f)"
               d="M 72 232.2  L 518.4 232.2  "
               style="fill:none;stroke:#b0b0b0;stroke-linecap:square;stroke-width:0.8;"
               id="path1135" />
          </g>
          <g
             id="line2d_44">
            <g
               id="g1140">
              <use
                 style="stroke:#000000;stroke-width:1.2;"
                 x="72"
                 xlink:href="#mcffd63a712"
                 y="232.2"
                 id="use1138" />
            </g>
          </g>
          <g
             id="line2d_45">
            <g
               id="g1145">
              <use
                 style="stroke:#000000;stroke-width:1.2;"
                 x="518.4"
                 xlink:href="#mcffd63a712"
                 y="232.2"
                 id="use1143" />
            </g>
          </g>
          <g
             id="text_16">
            <!-- $\mathdefault{5}$ -->
            <g
               transform="translate(58.976427 237.310786)scale(0.144 -0.144)"
               id="g1150">
              <use
                 transform="scale(0.996264)"
                 xlink:href="#CMR17-53"
                 id="use1148" />
            </g>
          </g>
        </g>
        <g
           id="ytick_7">
          <g
             id="line2d_46">
            <path
               clip-path="url(#p3754c2c06f)"
               d="M 72 177.84  L 518.4 177.84  "
               style="fill:none;stroke:#b0b0b0;stroke-linecap:square;stroke-width:0.8;"
               id="path1154" />
          </g>
          <g
             id="line2d_47">
            <g
               id="g1159">
              <use
                 style="stroke:#000000;stroke-width:1.2;"
                 x="72"
                 xlink:href="#mcffd63a712"
                 y="177.84"
                 id="use1157" />
            </g>
          </g>
          <g
             id="line2d_48">
            <g
               id="g1164">
              <use
                 style="stroke:#000000;stroke-width:1.2;"
                 x="518.4"
                 xlink:href="#mcffd63a712"
                 y="177.84"
                 id="use1162" />
            </g>
          </g>
          <g
             id="text_17">
            <!-- $\mathdefault{10}$ -->
            <g
               transform="translate(51.952854 182.950786)scale(0.144 -0.144)"
               id="g1171">
              <use
                 transform="scale(0.996264)"
                 xlink:href="#CMR17-49"
                 id="use1167" />
              <use
                 transform="translate(45.690477 0)scale(0.996264)"
                 xlink:href="#CMR17-48"
                 id="use1169" />
            </g>
          </g>
        </g>
        <g
           id="ytick_8">
          <g
             id="line2d_49">
            <path
               clip-path="url(#p3754c2c06f)"
               d="M 72 123.48  L 518.4 123.48  "
               style="fill:none;stroke:#b0b0b0;stroke-linecap:square;stroke-width:0.8;"
               id="path1175" />
          </g>
          <g
             id="line2d_50">
            <g
               id="g1180">
              <use
                 style="stroke:#000000;stroke-width:1.2;"
                 x="72"
                 xlink:href="#mcffd63a712"
                 y="123.48"
                 id="use1178" />
            </g>
          </g>
          <g
             id="line2d_51">
            <g
               id="g1185">
              <use
                 style="stroke:#000000;stroke-width:1.2;"
                 x="518.4"
                 xlink:href="#mcffd63a712"
                 y="123.48"
                 id="use1183" />
            </g>
          </g>
          <g
             id="text_18">
            <!-- $\mathdefault{15}$ -->
            <g
               transform="translate(51.952854 128.590786)scale(0.144 -0.144)"
               id="g1192">
              <use
                 transform="scale(0.996264)"
                 xlink:href="#CMR17-49"
                 id="use1188" />
              <use
                 transform="translate(45.690477 0)scale(0.996264)"
                 xlink:href="#CMR17-53"
                 id="use1190" />
            </g>
          </g>
        </g>
        <g
           id="ytick_9">
          <g
             id="line2d_52">
            <path
               clip-path="url(#p3754c2c06f)"
               d="M 72 69.12  L 518.4 69.12  "
               style="fill:none;stroke:#b0b0b0;stroke-linecap:square;stroke-width:0.8;"
               id="path1196" />
          </g>
          <g
             id="line2d_53">
            <g
               id="g1201">
              <use
                 style="stroke:#000000;stroke-width:1.2;"
                 x="72"
                 xlink:href="#mcffd63a712"
                 y="69.12"
                 id="use1199" />
            </g>
          </g>
          <g
             id="line2d_54">
            <g
               id="g1206">
              <use
                 style="stroke:#000000;stroke-width:1.2;"
                 x="518.4"
                 xlink:href="#mcffd63a712"
                 y="69.12"
                 id="use1204" />
            </g>
          </g>
          <g
             id="text_19">
            <!-- $\mathdefault{20}$ -->
            <g
               transform="translate(51.952854 74.230786)scale(0.144 -0.144)"
               id="g1213">
              <use
                 transform="scale(0.996264)"
                 xlink:href="#CMR17-50"
                 id="use1209" />
              <use
                 transform="translate(45.690477 0)scale(0.996264)"
                 xlink:href="#CMR17-48"
                 id="use1211" />
            </g>
          </g>
        </g>
        <g
           id="text_20">
          <!-- $\beta$ dihedral (deg) -->
          <g
             transform="translate(33.73902 337.095331)rotate(-90)scale(0.144 -0.144)"
             id="g1248">
            <defs
               id="defs1218">
              <path
                 d="M 56.59375 57.828125  C 56.59375 63.765625 51.5 70 42.40625 70  C 29.5 70 21.296875 54.328125 18.703125 44  L 2.90625 -18.3125  C 2.703125 -19.109375 3.296875 -19.3125 3.796875 -19.3125  C 4.5 -19.3125 5 -19.21875 5.09375 -18.71875  L 12.09375 9.15625  C 13.09375 3.578125 18.59375 -1 24.5 -1  C 38.796875 -1 52.296875 10.15625 52.296875 24.984375  C 52.296875 28.765625 51.40625 32.546875 49.296875 35.734375  C 48.09375 37.625 46.59375 39.015625 45 40.21875  C 52.203125 43.984375 56.59375 50 56.59375 57.828125  z M 39.203125 40.3125  C 37.59375 39.71875 36 39.515625 34.09375 39.515625  C 32.703125 39.515625 31.40625 39.421875 29.59375 40.015625  C 30.59375 40.71875 32.09375 40.90625 34.203125 40.90625  C 36 40.90625 37.796875 40.71875 39.203125 40.3125  z M 51.40625 58.71875  C 51.40625 53.28125 48.703125 45.359375 42.203125 41.703125  C 40.296875 42.46875 37.703125 43 35.5 43  C 33.40625 43 27.40625 43 27.40625 39.921875  C 27.40625 37.328125 32.90625 37.328125 34.59375 37.328125  C 37.203125 37.328125 39.5 38 41.90625 38.8125  C 45.09375 36.21875 46.5 32.828125 46.5 27.859375  C 46.5 22.078125 44.90625 17.421875 43 13.140625  C 39.703125 5.765625 31.90625 1 25 1  C 17.703125 1 13.90625 6.75 13.90625 13.5  C 13.90625 14.40625 13.90625 15.703125 14.296875 17.171875  L 20.796875 43.296875  C 24.09375 56.296875 32.5 68.015625 42.203125 68.015625  C 49.40625 68.015625 51.40625 63.0625 51.40625 58.71875  z "
                 id="CMMI12-12" />
            </defs>
            <use
               transform="scale(0.996264)"
               xlink:href="#CMMI12-12"
               id="use1220" />
            <use
               transform="translate(88.289185 0)scale(0.996264)"
               xlink:href="#Nimbus_Sans_L_Regular-100"
               id="use1222" />
            <use
               transform="translate(143.680862 0)scale(0.996264)"
               xlink:href="#Nimbus_Sans_L_Regular-105"
               id="use1224" />
            <use
               transform="translate(165.797647 0)scale(0.996264)"
               xlink:href="#Nimbus_Sans_L_Regular-104"
               id="use1226" />
            <use
               transform="translate(221.189324 0)scale(0.996264)"
               xlink:href="#Nimbus_Sans_L_Regular-101"
               id="use1228" />
            <use
               transform="translate(276.581001 0)scale(0.996264)"
               xlink:href="#Nimbus_Sans_L_Regular-100"
               id="use1230" />
            <use
               transform="translate(331.972678 0)scale(0.996264)"
               xlink:href="#Nimbus_Sans_L_Regular-114"
               id="use1232" />
            <use
               transform="translate(364.15181 0)scale(0.996264)"
               xlink:href="#Nimbus_Sans_L_Regular-97"
               id="use1234" />
            <use
               transform="translate(419.543487 0)scale(0.996264)"
               xlink:href="#Nimbus_Sans_L_Regular-108"
               id="use1236" />
            <use
               transform="translate(469.355441 0)scale(0.996264)"
               xlink:href="#Nimbus_Sans_L_Regular-40"
               id="use1238" />
            <use
               transform="translate(502.530671 0)scale(0.996264)"
               xlink:href="#Nimbus_Sans_L_Regular-100"
               id="use1240" />
            <use
               transform="translate(557.922348 0)scale(0.996264)"
               xlink:href="#Nimbus_Sans_L_Regular-101"
               id="use1242" />
            <use
               transform="translate(613.314025 0)scale(0.996264)"
               xlink:href="#Nimbus_Sans_L_Regular-103"
               id="use1244" />
            <use
               transform="translate(668.705702 0)scale(0.996264)"
               xlink:href="#Nimbus_Sans_L_Regular-41"
               id="use1246" />
          </g>
        </g>
      </g>
      <g
         id="LineCollection_1" />
      <g
         id="LineCollection_2">
        <path
           clip-path="url(#p3754c2c06f)"
           d="M 258.686165 410.143361  L 265.149037 410.695423  L 284.537652 410.970308  L 297.463396 411.642353  L 303.926268 411.513268  L 310.38914 410.780193  L 323.314884 408.304078  L 329.777755 406.912094  L 336.240627 405.368279  L 342.703499 403.546483  L 349.166371 401.59728  L 355.629243 399.259164  L 362.092115 396.741297  L 368.554987 394.149114  L 375.017858 391.01277  L 381.48073 387.228147  L 383.496068 385.705715  L 387.943602 381.799021  L 389.778527 379.69789  L 393.517778 373.690064  L 394.406474 371.682187  L 396.018567 367.682239  L 400.359708 355.666588  L 400.869346 354.432889  L 407.332218 341.566038  L 409.541319 337.643111  L 412.304008 331.635286  L 414.352788 325.62746  L 415.564267 319.619635  L 415.925328 313.611809  L 415.761044 307.603984  L 414.64928 289.580507  L 413.79509 281.627757  L 413.287084 277.564856  L 412.235712 271.557031  L 410.873247 265.549205  L 409.172796 259.54138  L 407.064813 253.533554  L 404.641339 247.525729  L 400.869346 240.273694  L 398.11489 235.510078  L 390.349265 223.494427  L 386.561557 217.486601  L 379.547801 205.47095  L 375.017858 198.574364  L 370.98135 193.455299  L 368.554987 190.775468  L 365.39167 187.447474  L 355.629243 177.551946  L 353.621769 175.431823  L 347.690708 169.423997  L 340.97322 163.416172  L 336.240627 159.910116  L 332.269363 157.408346  L 329.777755 155.978561  L 316.852012 149.29109  L 309.309073 145.392695  L 297.463396 138.394963  L 291.000524 134.54524  L 288.776534 133.377044  L 284.537652 131.002874  L 278.074781 128.130758  L 275.766862 127.369219  L 271.611909 125.843122  L 265.149037 124.296828  L 258.686165 123.419325  L 245.760421 122.502986  L 239.297549 122.086283  L 232.834678 121.794938  L 226.371806 121.89164  L 219.908934 122.682809  L 213.446062 124.488066  L 206.98319 127.54188  L 196.742092 133.377044  L 194.057446 134.919867  L 185.989205 139.38487  L 181.131703 142.293557  L 174.668831 146.616141  L 167.648073 151.400521  L 157.964883 157.408346  L 155.280215 159.301531  L 150.714599 163.416172  L 148.817343 165.980407  L 146.648184 169.423997  L 144.283104 175.431823  L 142.354472 181.563693  L 138.721091 187.447474  L 135.8916 190.10933  L 122.965856 198.133993  L 121.586526 199.463125  L 117.199978 205.47095  L 116.502984 207.337292  L 115.270707 211.478776  L 114.606253 217.486601  L 114.560146 223.494427  L 114.668489 229.502252  L 114.599604 235.510078  L 114.254422 241.517903  L 113.389779 253.533554  L 113.229016 259.54138  L 113.26739 265.549205  L 113.430981 271.557031  L 113.767064 277.564856  L 114.572798 283.572682  L 116.502984 289.747681  L 119.618883 295.588333  L 124.609261 301.596158  L 130.747341 307.603984  L 137.070596 313.611809  L 142.709676 319.619635  L 147.241497 325.62746  L 150.922329 331.635286  L 155.280215 339.932123  L 157.059603 343.650937  L 160.095954 349.658762  L 163.35885 355.666588  L 167.143018 361.674413  L 168.205959 363.133801  L 171.726821 367.682239  L 174.668831 370.740092  L 178.027501 373.690064  L 181.131703 375.977991  L 187.594575 379.710219  L 200.520318 386.184522  L 213.446062 393.602143  L 221.390703 397.721366  L 226.371806 399.986412  L 236.258608 403.729192  L 239.297549 404.846026  L 245.760421 407.058706  L 252.223293 408.9055  L 258.686165 410.143361  L 258.686165 410.143361  "
           style="fill:none;stroke:#ffc9c9;stroke-width:1.5;"
           id="path1253" />
      </g>
      <g
         id="LineCollection_3">
        <path
           clip-path="url(#p3754c2c06f)"
           d="M 271.611909 387.187156  L 278.074781 388.72489  L 284.537652 389.674571  L 291.000524 390.04691  L 297.463396 389.833088  L 303.926268 389.058217  L 310.38914 387.778333  L 317.854905 385.705715  L 323.314884 383.853747  L 336.240627 379.199432  L 342.703499 377.002282  L 349.166371 374.547861  L 351.10922 373.690064  L 355.629243 371.439622  L 362.092115 367.370772  L 368.554987 361.664437  L 373.419326 355.666588  L 375.017858 353.334232  L 377.096864 349.658762  L 379.802108 343.650937  L 381.673969 337.643111  L 382.964086 331.635286  L 385.089709 319.619635  L 388.908108 301.596158  L 389.693501 295.588333  L 389.97871 289.580507  L 389.790747 283.572682  L 389.215177 277.564856  L 387.943602 269.517831  L 387.20308 265.549205  L 385.707574 259.54138  L 383.666259 253.533554  L 380.974915 247.525729  L 377.721276 241.517903  L 373.991134 235.510078  L 368.554987 227.519994  L 365.649212 223.494427  L 360.967796 217.486601  L 340.786488 193.455299  L 335.494829 187.447474  L 329.337227 181.439648  L 323.314884 176.730788  L 316.852012 172.859466  L 309.081856 169.423997  L 291.000524 162.217136  L 278.074781 156.416778  L 271.611909 153.930032  L 262.837458 151.400521  L 252.223293 148.805708  L 245.760421 147.383739  L 239.297549 146.376897  L 232.834678 146.187489  L 226.371806 147.202785  L 219.908934 149.64168  L 213.446062 153.382646  L 206.98319 158.134627  L 200.520318 163.579217  L 193.783821 169.423997  L 186.440292 175.431823  L 179.566908 181.439648  L 174.510002 187.447474  L 170.844035 193.455299  L 164.657841 205.47095  L 161.743087 211.59502  L 158.74651 217.486601  L 156.286592 223.494427  L 155.280215 226.569997  L 154.149468 229.502252  L 148.472436 247.525729  L 146.657832 253.533554  L 145.324793 259.54138  L 144.74677 265.549205  L 145.162094 271.557031  L 146.858178 277.564856  L 150.063427 283.572682  L 155.280215 290.031491  L 161.743087 297.391401  L 164.825699 301.596158  L 168.862683 307.603984  L 172.069115 313.611809  L 175.063689 319.619635  L 181.131703 333.108047  L 183.416556 337.643111  L 187.594575 344.206984  L 192.341676 349.658762  L 194.057446 351.291762  L 200.520318 356.314977  L 206.98319 360.172727  L 213.446062 363.414766  L 219.908934 366.262635  L 226.371806 368.937126  L 232.834678 371.606544  L 239.297549 374.166469  L 245.760421 377.017317  L 252.232747 379.69789  L 258.686165 382.598324  L 267.050945 385.705715  L 271.611909 387.187156  L 271.611909 387.187156  "
           style="fill:none;stroke:#ffacac;stroke-width:1.5;"
           id="path1256" />
      </g>
      <g
         id="LineCollection_4">
        <path
           clip-path="url(#p3754c2c06f)"
           d="M 271.611909 369.109558  L 278.074781 371.031434  L 284.537652 372.048533  L 291.000524 371.989256  L 297.463396 370.901414  L 303.926268 368.989448  L 323.711285 361.674413  L 329.777755 359.630196  L 336.240627 356.979446  L 338.631472 355.666588  L 342.703499 353.037448  L 346.759474 349.658762  L 349.166371 347.370237  L 352.711503 343.650937  L 355.629243 340.059312  L 357.389789 337.643111  L 360.557856 331.635286  L 362.551619 325.62746  L 363.988709 319.619635  L 366.368375 307.603984  L 367.325171 301.596158  L 368.014716 295.588333  L 368.400711 289.580507  L 368.476429 283.572682  L 368.227995 277.564856  L 367.611262 271.557031  L 366.538389 265.549205  L 364.893882 259.54138  L 362.092115 252.510188  L 359.677793 247.525729  L 355.629243 240.66382  L 352.224772 235.510078  L 347.793978 229.502252  L 328.657154 205.47095  L 323.314884 199.444474  L 316.852012 194.055927  L 315.887743 193.455299  L 310.38914 190.436517  L 302.526586 187.447474  L 291.000524 183.725906  L 284.378381 181.439648  L 265.149037 174.023016  L 258.686165 171.647879  L 252.089086 169.423997  L 245.760421 167.684889  L 239.297549 166.817218  L 232.834678 167.306184  L 226.278562 169.423997  L 219.908934 173.024267  L 213.446062 177.794237  L 201.984804 187.447474  L 200.520318 188.714355  L 194.057446 194.684144  L 189.749541 199.463125  L 187.594575 202.170157  L 185.358708 205.47095  L 182.14622 211.478776  L 180.07218 217.486601  L 179.031202 223.494427  L 178.715437 229.502252  L 178.634516 235.510078  L 178.158372 241.517903  L 176.728205 247.525729  L 174.289212 253.533554  L 171.705197 259.54138  L 170.200573 265.549205  L 170.307932 271.557031  L 171.969327 277.564856  L 174.855129 283.572682  L 178.106072 289.580507  L 185.377445 301.596158  L 187.594575 305.021456  L 198.157054 319.619635  L 202.079263 325.62746  L 206.98319 332.909465  L 210.952599 337.643111  L 213.446062 339.90656  L 218.023704 343.650937  L 219.908934 344.885501  L 227.69533 349.658762  L 232.834678 352.346805  L 239.594366 355.666588  L 252.223293 361.173132  L 265.149037 366.621098  L 271.611909 369.109558  L 271.611909 369.109558  "
           style="fill:none;stroke:#ff8f8f;stroke-width:1.5;"
           id="path1259" />
      </g>
      <g
         id="LineCollection_5">
        <path
           clip-path="url(#p3754c2c06f)"
           d="M 284.537652 355.930869  L 291.000524 355.803726  L 291.693656 355.666588  L 297.463396 354.501459  L 303.926268 352.192735  L 309.545427 349.658762  L 310.38914 349.229259  L 316.852012 345.894581  L 321.225989 343.650937  L 323.314884 342.362858  L 329.777755 338.122462  L 330.402533 337.643111  L 336.240627 332.625262  L 337.209853 331.635286  L 342.431451 325.62746  L 342.703499 325.269134  L 346.051335 319.619635  L 348.813261 313.611809  L 349.166371 312.677686  L 350.796195 307.603984  L 352.216334 301.596158  L 353.045926 295.588333  L 353.256893 289.580507  L 352.860901 283.572682  L 351.875537 277.564856  L 350.325181 271.557031  L 349.166371 268.049686  L 348.272193 265.549205  L 345.810746 259.54138  L 342.970094 253.533554  L 342.703499 253.035064  L 339.692794 247.525729  L 336.240627 242.083569  L 335.890749 241.517903  L 331.638017 235.510078  L 329.777755 233.138393  L 327.052893 229.502252  L 323.314884 224.870055  L 322.226934 223.494427  L 317.149198 217.486601  L 316.852012 217.150533  L 311.223812 211.478776  L 310.38914 210.727686  L 303.926268 206.111115  L 302.71792 205.47095  L 297.463396 202.89252  L 291.000524 200.471055  L 287.918509 199.463125  L 284.537652 198.326563  L 278.074781 196.153957  L 271.611909 193.854891  L 270.447983 193.455299  L 265.149037 191.609325  L 258.686165 189.70775  L 252.223293 188.484946  L 245.760421 188.237454  L 239.297549 189.201143  L 232.834678 191.632906  L 229.758144 193.455299  L 226.371806 195.871352  L 222.19744 199.463125  L 219.908934 201.65161  L 215.561134 205.47095  L 213.446062 207.229266  L 207.977482 211.478776  L 206.98319 212.287654  L 201.995445 217.486601  L 200.520318 219.87872  L 198.956614 223.494427  L 197.942071 229.502252  L 197.940592 235.510078  L 198.198144 241.517903  L 198.08798 247.525729  L 197.13401 253.533554  L 195.166897 259.54138  L 194.057446 262.218508  L 192.551379 265.549205  L 190.623834 271.557031  L 190.391132 277.564856  L 191.81157 283.572682  L 194.057446 288.538899  L 194.555232 289.580507  L 198.762437 295.588333  L 200.520318 297.646458  L 204.550356 301.596158  L 206.98319 303.863084  L 211.476031 307.603984  L 213.446062 309.460988  L 217.870895 313.611809  L 219.908934 315.932571  L 223.112951 319.619635  L 226.371806 323.613074  L 228.101583 325.62746  L 232.834678 330.562373  L 233.99138 331.635286  L 239.297549 335.880947  L 241.832447 337.643111  L 245.760421 340.065739  L 252.168223 343.650937  L 252.223293 343.678739  L 258.686165 346.953237  L 264.181331 349.658762  L 265.149037 350.099223  L 271.611909 352.831585  L 278.074781 354.885642  L 282.874367 355.666588  L 284.537652 355.930869  "
           style="fill:none;stroke:#ff7272;stroke-width:1.5;"
           id="path1262" />
      </g>
      <g
         id="LineCollection_6">
        <path
           clip-path="url(#p3754c2c06f)"
           d="M 278.074781 338.001268  L 284.537652 339.246496  L 291.000524 338.882019  L 294.785383 337.643111  L 297.463396 336.542116  L 303.926268 332.13953  L 304.55443 331.635286  L 310.38914 326.072243  L 310.875577 325.62746  L 316.852012 320.146453  L 317.503364 319.619635  L 323.314884 315.209063  L 325.27824 313.611809  L 329.777755 309.682117  L 331.527568 307.603984  L 335.449072 301.596158  L 336.240627 299.661797  L 337.490842 295.588333  L 338.13219 289.580507  L 337.563008 283.572682  L 336.240627 278.751882  L 335.86967 277.564856  L 333.209018 271.557031  L 330.254693 265.549205  L 329.777755 264.610022  L 327.376468 259.54138  L 324.523951 253.533554  L 323.314884 251.212845  L 321.560883 247.525729  L 318.186493 241.517903  L 316.852012 239.500995  L 314.221087 235.510078  L 310.38914 230.54817  L 309.486214 229.502252  L 303.926268 223.826387  L 303.506036 223.494427  L 297.463396 219.173277  L 293.960543 217.486601  L 291.000524 216.139254  L 284.537652 214.113191  L 278.074781 212.495821  L 273.991618 211.478776  L 271.611909 210.84648  L 265.149037 209.094798  L 258.686165 207.71932  L 252.223293 207.357174  L 245.760421 208.719099  L 240.902201 211.478776  L 239.297549 212.534682  L 234.05093 217.486601  L 232.834678 218.732717  L 228.277594 223.494427  L 226.371806 225.727182  L 223.017758 229.502252  L 219.908934 234.64764  L 219.43522 235.510078  L 217.503816 241.517903  L 216.426538 247.525729  L 215.448248 253.533554  L 214.111469 259.54138  L 213.446062 261.818779  L 212.327073 265.549205  L 210.576687 271.557031  L 209.798591 277.564856  L 210.902739 283.572682  L 213.446062 287.946068  L 214.461738 289.580507  L 219.908934 295.028144  L 220.481943 295.588333  L 226.371806 300.564525  L 227.519963 301.596158  L 232.834678 306.549213  L 233.888453 307.603984  L 239.297549 313.306192  L 239.592636 313.611809  L 245.677702 319.619635  L 245.760421 319.694851  L 252.223293 324.776685  L 253.540702 325.62746  L 258.686165 328.867484  L 263.819569 331.635286  L 265.149037 332.375196  L 271.611909 335.493492  L 277.138088 337.643111  L 278.074781 338.001268  "
           style="fill:none;stroke:#ff5656;stroke-width:1.5;"
           id="path1265" />
      </g>
      <g
         id="LineCollection_7">
        <path
           clip-path="url(#p3754c2c06f)"
           d="M 265.149037 314.235067  L 271.611909 315.986872  L 278.074781 316.485817  L 284.537652 315.524021  L 289.087284 313.611809  L 291.000524 312.79693  L 297.463396 308.62582  L 298.758216 307.603984  L 303.926268 303.734158  L 306.513271 301.596158  L 310.38914 297.695935  L 312.28451 295.588333  L 315.323975 289.580507  L 316.149442 283.572682  L 315.631581 277.564856  L 314.471655 271.557031  L 313.04575 265.549205  L 311.388256 259.54138  L 310.38914 256.708919  L 309.237437 253.533554  L 306.327571 247.525729  L 303.926268 243.697051  L 302.26116 241.517903  L 297.463396 236.464299  L 296.195627 235.510078  L 291.000524 232.169604  L 284.620403 229.502252  L 284.537652 229.470971  L 278.074781 227.745567  L 271.611909 226.361425  L 265.149037 225.287039  L 258.686165 225.022802  L 252.223293 226.527312  L 247.411556 229.502252  L 245.760421 230.771523  L 241.503971 235.510078  L 239.297549 238.607343  L 237.568289 241.517903  L 235.025471 247.525729  L 233.320304 253.533554  L 232.834678 255.850503  L 232.082862 259.54138  L 231.033645 265.549205  L 230.260826 271.557031  L 230.412806 277.564856  L 232.453207 283.572682  L 232.834678 284.110343  L 236.797167 289.580507  L 239.297549 292.222413  L 242.332074 295.588333  L 245.760421 299.207858  L 248.040431 301.596158  L 252.223293 305.8078  L 254.361223 307.603984  L 258.686165 310.88668  L 263.87445 313.611809  L 265.149037 314.235067  "
           style="fill:none;stroke:#ff3939;stroke-width:1.5;"
           id="path1268" />
      </g>
      <g
         id="LineCollection_8">
        <path
           clip-path="url(#p3754c2c06f)"
           d="M 271.611909 290.361734  L 278.074781 290.9513  L 284.537652 289.720909  L 284.825382 289.580507  L 291.000524 285.226783  L 292.273327 283.572682  L 294.292142 277.564856  L 294.495575 271.557031  L 293.643826 265.549205  L 291.840457 259.54138  L 291.000524 257.877315  L 287.520681 253.533554  L 284.537652 251.059657  L 278.074781 248.199151  L 273.177986 247.525729  L 271.611909 247.354596  L 270.211738 247.525729  L 265.149037 248.420245  L 258.686165 252.212365  L 257.479872 253.533554  L 254.113575 259.54138  L 252.900337 265.549205  L 253.664989 271.557031  L 256.229604 277.564856  L 258.686165 281.177247  L 260.809902 283.572682  L 265.149037 287.311285  L 269.637065 289.580507  L 271.611909 290.361734  "
           style="fill:none;stroke:#ff1c1c;stroke-width:1.5;"
           id="path1271" />
      </g>
      <g
         id="LineCollection_9" />
      <g
         id="LineCollection_10" />
      <g
         id="LineCollection_11">
        <path
           clip-path="url(#p3754c2c06f)"
           d="M 322.371263 392.78275  L 328.792075 394.631238  L 335.212888 395.672655  L 341.633701 395.952235  L 354.475326 395.744435  L 360.896139 395.446386  L 367.316952 394.904633  L 380.158577 393.420521  L 386.57939 392.903526  L 399.421015 392.47327  L 405.841828 391.931878  L 412.262641 390.891448  L 418.683454 389.370234  L 425.104266 386.957187  L 428.926362 384.574749  L 431.525079 382.47934  L 435.487349 377.777162  L 444.366705 364.915097  L 445.063019 364.181988  L 450.787517 358.670553  L 452.495104 357.3844  L 457.20833 353.218187  L 459.444826 350.586813  L 463.629143 342.94501  L 465.758538 336.991639  L 467.986089 330.194052  L 472.164425 316.598878  L 473.737593 309.801291  L 474.622917 303.003704  L 474.825154 296.206117  L 474.430592 289.40853  L 473.629051 282.610943  L 471.572544 269.015769  L 470.049955 261.702884  L 468.503232 255.420595  L 466.042818 248.623008  L 463.026356 241.82542  L 457.20833 227.743521  L 454.816531 221.432659  L 451.812476 214.635072  L 448.292832 207.837485  L 444.366705 201.02444  L 440.764473 194.242311  L 437.045184 187.444724  L 433.26036 180.647137  L 428.94622 173.84955  L 423.786102 167.051963  L 417.700038 160.254376  L 410.633966 153.456789  L 405.841828 149.345118  L 393.000203 139.032346  L 386.364283 133.064028  L 379.179354 126.26644  L 373.737765 121.771465  L 367.316952 117.865903  L 360.896139 115.352849  L 354.475326 113.815551  L 348.00029 112.671266  L 341.633701 111.227253  L 328.792075 107.822929  L 322.371263 106.708244  L 315.95045 106.169756  L 296.688012 105.386691  L 290.267199 105.469454  L 283.846386 106.469264  L 277.425574 109.03717  L 272.284699 112.671266  L 271.004761 113.771751  L 258.163135 127.422814  L 251.387009 133.064028  L 245.32151 137.897151  L 243.267299 139.861615  L 238.900697 144.895759  L 237.639879 146.659202  L 229.198529 160.254376  L 226.059072 165.527368  L 224.96771 167.051963  L 219.638259 174.779608  L 215.983807 180.647137  L 212.77964 187.444724  L 210.350848 194.242311  L 208.808995 201.039898  L 207.845313 207.837485  L 206.486555 221.432659  L 205.575434 228.230246  L 204.227268 235.027833  L 202.549743 241.82542  L 201.336235 248.623008  L 201.502971 255.420595  L 203.258313 262.218182  L 206.796634 270.066816  L 209.335607 275.813356  L 213.217446 283.780144  L 215.816695 289.40853  L 222.498199 303.003704  L 226.448463 309.801291  L 229.563979 316.598878  L 232.479885 322.510739  L 232.765713 323.396465  L 235.407756 330.194052  L 239.227093 336.991639  L 243.556093 343.789226  L 245.32151 346.154921  L 251.742323 354.267849  L 254.513694 357.3844  L 258.163135 361.72396  L 260.495592 364.181988  L 264.583948 369.071154  L 266.466958 370.979575  L 271.004761 375.984809  L 273.254158 377.777162  L 277.425574 380.567984  L 283.846386 383.070345  L 290.267199 384.585802  L 296.688012 385.807526  L 303.108825 387.195753  L 309.529637 388.849894  L 318.221892 391.372336  L 322.371263 392.78275  L 322.371263 392.78275  "
           style="fill:none;stroke:#ccccff;stroke-width:1.5;"
           id="path1276" />
      </g>
      <g
         id="LineCollection_12">
        <path
           clip-path="url(#p3754c2c06f)"
           d="M 315.95045 364.911846  L 322.371263 366.747009  L 328.792075 367.566194  L 341.633701 367.940061  L 354.475326 369.04629  L 360.896139 369.238804  L 367.316952 368.579366  L 373.737765 366.954722  L 380.158577 364.852858  L 386.57939 363.380689  L 393.000203 362.882412  L 399.421015 362.941106  L 405.841828 362.725263  L 412.262641 361.321429  L 418.683454 357.951773  L 419.337549 357.3844  L 425.104266 352.545977  L 426.840644 350.586813  L 432.957965 343.789226  L 438.622102 336.991639  L 443.455676 330.194052  L 447.075537 323.396465  L 449.566249 316.598878  L 451.246681 309.801291  L 452.342017 303.003704  L 452.992537 296.206117  L 453.405861 289.40853  L 453.635341 282.610943  L 453.576738 275.813356  L 453.041787 269.015769  L 451.814532 262.218182  L 449.883998 255.420595  L 447.362097 248.623008  L 441.001778 235.027833  L 433.25478 221.432659  L 431.525079 218.57997  L 429.426463 214.635072  L 425.104266 205.595666  L 423.362708 201.039898  L 420.462062 194.242311  L 416.841426 187.444724  L 412.242041 180.647137  L 405.841828 172.823427  L 399.421015 166.40446  L 393.000203 161.341359  L 386.57939 157.17157  L 380.158577 153.340171  L 367.316952 144.363417  L 360.896139 140.496158  L 354.475326 137.505141  L 348.054514 135.378401  L 335.212888 132.012033  L 328.792075 130.454798  L 322.371263 129.29489  L 315.95045 128.838255  L 309.529637 129.41688  L 303.108825 131.316165  L 299.615425 133.064028  L 296.688012 134.703754  L 283.846386 143.295814  L 279.676777 146.659202  L 277.425574 148.31021  L 271.004761 154.078758  L 263.560207 160.254376  L 258.163135 164.513873  L 255.513165 167.051963  L 251.742323 171.655961  L 250.284716 173.84955  L 247.025417 180.647137  L 245.32151 185.327618  L 238.63378 201.039898  L 236.503834 207.837485  L 235.702633 214.635072  L 235.327877 221.432659  L 234.478668 228.230246  L 232.479885 236.616541  L 231.101081 241.82542  L 229.719992 248.623008  L 229.074459 255.420595  L 229.374792 262.218182  L 230.824772 269.015769  L 233.468961 275.813356  L 237.071095 282.610943  L 245.769036 296.206117  L 249.793557 303.003704  L 253.272413 309.801291  L 258.163135 320.535992  L 259.682561 323.396465  L 264.583948 330.382611  L 271.407298 336.991639  L 277.425574 341.669775  L 283.846386 346.169018  L 301.161003 357.3844  L 303.108825 358.585327  L 309.529637 362.127432  L 315.95045 364.911846  L 315.95045 364.911846  "
           style="fill:none;stroke:#b3b3ff;stroke-width:1.5;"
           id="path1279" />
      </g>
      <g
         id="LineCollection_13">
        <path
           clip-path="url(#p3754c2c06f)"
           d="M 315.95045 344.913234  L 322.371263 346.69282  L 328.792075 347.330386  L 335.212888 347.667133  L 341.633701 348.342081  L 348.054514 349.34264  L 354.475326 350.213085  L 360.896139 350.422275  L 367.316952 349.620761  L 373.737765 347.906111  L 380.158577 345.909368  L 386.57939 344.321039  L 389.895044 343.789226  L 393.000203 343.330581  L 399.421015 342.449781  L 405.841828 340.951105  L 412.262641 338.171139  L 414.068452 336.991639  L 418.683454 333.643865  L 422.283539 330.194052  L 425.104266 327.051579  L 427.822481 323.396465  L 431.525079 317.01399  L 431.737151 316.598878  L 434.684104 309.801291  L 437.290021 303.003704  L 437.945892 301.207286  L 439.516913 296.206117  L 441.157741 289.40853  L 442.072124 282.610943  L 442.154872 275.813356  L 441.347437 269.015769  L 439.677156 262.218182  L 437.945892 257.242307  L 437.330087 255.420595  L 434.702324 248.623008  L 431.630359 241.82542  L 431.525079 241.62482  L 428.324398 235.027833  L 425.104266 229.50314  L 424.405212 228.230246  L 420.523865 221.432659  L 418.683454 218.117903  L 416.871976 214.635072  L 413.575504 207.837485  L 412.262641 205.120591  L 410.188698 201.039898  L 406.080477 194.242311  L 405.841828 193.893856  L 400.814178 187.444724  L 399.421015 185.858169  L 394.177238 180.647137  L 393.000203 179.553559  L 386.57939 174.356335  L 385.896226 173.84955  L 380.158577 169.747193  L 376.052578 167.051963  L 373.737765 165.493448  L 367.316952 161.309998  L 365.529089 160.254376  L 360.896139 157.259358  L 354.475326 153.950582  L 353.174187 153.456789  L 348.054514 151.348534  L 341.633701 149.660984  L 335.212888 148.792246  L 328.792075 148.773924  L 322.371263 149.693534  L 315.95045 151.503023  L 310.772293 153.456789  L 309.529637 153.853298  L 303.108825 156.034771  L 296.688012 158.366818  L 292.477002 160.254376  L 290.267199 161.278294  L 283.846386 165.568901  L 282.07187 167.051963  L 277.425574 171.544142  L 274.959313 173.84955  L 271.004761 178.497077  L 269.123227 180.647137  L 265.312805 187.444724  L 264.583948 189.553874  L 263.167082 194.242311  L 261.39954 201.039898  L 259.516494 207.837485  L 258.163135 212.936189  L 257.714998 214.635072  L 256.259307 221.432659  L 255.194691 228.230246  L 254.114714 235.027833  L 252.628153 241.82542  L 251.742323 245.30069  L 250.856744 248.623008  L 249.563768 255.420595  L 249.308551 262.218182  L 250.302437 269.015769  L 251.742323 273.333247  L 252.6439 275.813356  L 256.30107 282.610943  L 258.163135 285.530255  L 260.829582 289.40853  L 264.583948 294.857115  L 265.524887 296.206117  L 269.890822 303.003704  L 271.004761 304.930788  L 273.971757 309.801291  L 277.425574 315.187707  L 278.456327 316.598878  L 283.846386 322.647252  L 284.622699 323.396465  L 290.267199 327.952984  L 293.158037 330.194052  L 296.688012 332.68011  L 302.544203 336.991639  L 303.108825 337.38494  L 309.529637 341.704876  L 313.654915 343.789226  L 315.95045 344.913234  "
           style="fill:none;stroke:#9999ff;stroke-width:1.5;"
           id="path1282" />
      </g>
      <g
         id="LineCollection_14">
        <path
           clip-path="url(#p3754c2c06f)"
           d="M 328.792075 331.835427  L 335.212888 333.038443  L 341.633701 334.271244  L 348.054514 335.559947  L 354.475326 336.481809  L 360.896139 336.478098  L 367.316952 335.310308  L 373.737765 333.436989  L 380.158577 331.658881  L 386.57939 330.266828  L 386.920059 330.194052  L 393.000203 328.904477  L 399.421015 326.687585  L 405.08317 323.396465  L 405.841828 322.872387  L 412.262641 316.967364  L 412.596917 316.598878  L 417.729729 309.801291  L 418.683454 308.301093  L 421.802509 303.003704  L 425.104266 296.859856  L 425.432706 296.206117  L 428.518281 289.40853  L 430.564106 282.610943  L 431.150113 275.813356  L 430.345961 269.015769  L 428.6658 262.218182  L 426.595413 255.420595  L 425.104266 251.13927  L 424.289546 248.623008  L 421.614074 241.82542  L 418.683454 235.811615  L 418.30409 235.027833  L 414.557663 228.230246  L 412.262641 224.17896  L 410.717354 221.432659  L 407.026593 214.635072  L 405.841828 212.452651  L 403.157264 207.837485  L 399.421015 202.12498  L 398.634544 201.039898  L 393.007329 194.242311  L 393.000203 194.234514  L 386.57939 187.782148  L 386.218173 187.444724  L 380.158577 182.231163  L 378.128393 180.647137  L 373.737765 177.374087  L 368.376811 173.84955  L 367.316952 173.140393  L 360.896139 169.42108  L 355.560991 167.051963  L 354.475326 166.520026  L 348.054514 164.500417  L 341.633701 163.598857  L 335.212888 163.671409  L 328.792075 164.399526  L 322.371263 165.537149  L 316.213884 167.051963  L 315.95045 167.111154  L 309.529637 169.077138  L 303.108825 171.678837  L 299.01616 173.84955  L 296.688012 175.33249  L 290.869601 180.647137  L 290.267199 181.39813  L 286.226811 187.444724  L 283.846386 192.573111  L 283.052107 194.242311  L 280.206025 201.039898  L 277.5464 207.837485  L 277.425574 208.151276  L 274.67825 214.635072  L 272.599117 221.432659  L 271.524787 228.230246  L 271.201804 235.027833  L 271.126029 241.82542  L 271.004761 246.055326  L 270.909211 248.623008  L 270.655323 255.420595  L 271.004761 260.559946  L 271.109454 262.218182  L 272.73561 269.015769  L 275.689473 275.813356  L 277.425574 278.829088  L 279.466547 282.610943  L 283.846386 289.349402  L 283.884744 289.40853  L 288.69624 296.206117  L 290.267199 298.287275  L 293.860377 303.003704  L 296.688012 306.485717  L 299.219983 309.801291  L 303.108825 314.378021  L 304.903569 316.598878  L 309.529637 321.486928  L 311.568947 323.396465  L 315.95045 326.826572  L 322.371263 330.067087  L 322.794291 330.194052  L 328.792075 331.835427  "
           style="fill:none;stroke:#8080ff;stroke-width:1.5;"
           id="path1285" />
      </g>
      <g
         id="LineCollection_15">
        <path
           clip-path="url(#p3754c2c06f)"
           d="M 354.475326 323.930081  L 360.896139 323.613099  L 362.017028 323.396465  L 367.316952 322.430662  L 373.737765 321.007766  L 380.158577 319.687644  L 386.57939 318.202607  L 391.03496 316.598878  L 393.000203 315.78075  L 399.421015 311.4099  L 401.125129 309.801291  L 405.841828 304.187472  L 406.718079 303.003704  L 410.953252 296.206117  L 412.262641 293.672946  L 414.483078 289.40853  L 417.164728 282.610943  L 418.576207 275.813356  L 418.678673 269.015769  L 417.877356 262.218182  L 416.519647 255.420595  L 414.620551 248.623008  L 412.262641 242.43191  L 412.023877 241.82542  L 408.640185 235.027833  L 405.841828 229.903098  L 404.913399 228.230246  L 401.117657 221.432659  L 399.421015 218.429999  L 397.189024 214.635072  L 393.000203 208.272548  L 392.694947 207.837485  L 387.248399 201.039898  L 386.57939 200.298037  L 380.76612 194.242311  L 380.158577 193.668786  L 373.737765 188.096102  L 372.871176 187.444724  L 367.316952 183.526059  L 362.183594 180.647137  L 360.896139 179.926742  L 354.475326 177.448182  L 348.054514 176.157956  L 341.633701 175.941619  L 335.212888 176.358083  L 328.792075 177.01668  L 322.371263 177.997219  L 315.95045 179.694038  L 313.618526 180.647137  L 309.529637 182.506762  L 303.108825 186.870656  L 302.483293 187.444724  L 296.772801 194.242311  L 296.688012 194.374773  L 293.163299 201.039898  L 290.350376 207.837485  L 290.267199 208.068052  L 287.812445 214.635072  L 285.741596 221.432659  L 284.441082 228.230246  L 284.027537 235.027833  L 284.281385 241.82542  L 284.938818 248.623008  L 285.975407 255.420595  L 287.649344 262.218182  L 290.267199 269.008456  L 290.270328 269.015769  L 293.921844 275.813356  L 296.688012 280.17664  L 298.378683 282.610943  L 303.104217 289.40853  L 303.108825 289.414938  L 307.708878 296.206117  L 309.529637 298.806977  L 312.380502 303.003704  L 315.95045 307.601258  L 317.902975 309.801291  L 322.371263 313.870138  L 326.664899 316.598878  L 328.792075 317.701097  L 335.212888 320.058306  L 341.633701 321.845824  L 348.054514 323.230922  L 349.579722 323.396465  L 354.475326 323.930081  "
           style="fill:none;stroke:#6666ff;stroke-width:1.5;"
           id="path1288" />
      </g>
      <g
         id="LineCollection_16">
        <path
           clip-path="url(#p3754c2c06f)"
           d="M 348.054514 310.569942  L 354.475326 311.331596  L 360.896139 311.216971  L 367.316952 310.512758  L 371.896943 309.801291  L 373.737765 309.500274  L 380.158577 308.017034  L 386.57939 305.527193  L 390.451289 303.003704  L 393.000203 300.819009  L 396.865591 296.206117  L 399.421015 292.267071  L 401.040639 289.40853  L 404.067093 282.610943  L 405.841828 276.943189  L 406.177336 275.813356  L 407.267591 269.015769  L 407.36985 262.218182  L 406.547209 255.420595  L 405.841828 252.733724  L 404.70652 248.623008  L 401.876445 241.82542  L 399.421015 236.988027  L 398.424454 235.027833  L 394.792987 228.230246  L 393.000203 224.967232  L 391.048663 221.432659  L 386.827711 214.635072  L 386.57939 214.284995  L 381.649819 207.837485  L 380.158577 206.107529  L 375.328523 201.039898  L 373.737765 199.517457  L 367.316952 194.266461  L 367.27789 194.242311  L 360.896139 190.606255  L 354.475326 188.265794  L 349.149664 187.444724  L 348.054514 187.281996  L 341.633701 187.258606  L 338.909672 187.444724  L 335.212888 187.705167  L 328.792075 188.511243  L 322.371263 190.02641  L 315.95045 192.746336  L 313.597521 194.242311  L 309.529637 197.546207  L 306.412079 201.039898  L 303.108825 206.0578  L 302.188145 207.837485  L 299.495087 214.635072  L 297.415047 221.432659  L 296.688012 224.760152  L 295.974267 228.230246  L 295.252774 235.027833  L 295.340551 241.82542  L 296.308064 248.623008  L 296.688012 250.002868  L 298.29522 255.420595  L 301.651758 262.218182  L 303.108825 264.457958  L 306.731947 269.015769  L 309.529637 272.337647  L 312.715867 275.813356  L 315.95045 280.187808  L 317.60794 282.610943  L 321.229815 289.40853  L 322.371263 291.455279  L 325.114013 296.206117  L 328.792075 300.70611  L 331.217701 303.003704  L 335.212888 305.761655  L 341.633701 308.775183  L 345.096285 309.801291  L 348.054514 310.569942  "
           style="fill:none;stroke:#4d4dff;stroke-width:1.5;"
           id="path1291" />
      </g>
      <g
         id="LineCollection_17">
        <path
           clip-path="url(#p3754c2c06f)"
           d="M 354.475326 296.266282  L 360.896139 296.971407  L 367.316952 296.89232  L 371.750697 296.206117  L 373.737765 295.826165  L 380.158577 292.972744  L 384.706465 289.40853  L 386.57939 287.428678  L 389.807089 282.610943  L 393.000203 276.312174  L 393.199896 275.813356  L 395.052815 269.015769  L 395.83383 262.218182  L 395.36866 255.420595  L 393.677862 248.623008  L 393.000203 246.929932  L 390.981956 241.82542  L 387.897328 235.027833  L 386.57939 232.393653  L 384.446151 228.230246  L 380.450264 221.432659  L 380.158577 221.001896  L 375.110744 214.635072  L 373.737765 213.065191  L 368.102915 207.837485  L 367.316952 207.15109  L 360.896139 202.966389  L 356.334946 201.039898  L 354.475326 200.332701  L 348.054514 199.1827  L 341.633701 199.080423  L 335.212888 199.845631  L 330.697855 201.039898  L 328.792075 201.716244  L 322.371263 205.518599  L 319.618872 207.837485  L 315.95045 211.942908  L 314.115107 214.635072  L 310.471187 221.432659  L 309.529637 223.684226  L 308.017983 228.230246  L 306.550122 235.027833  L 306.240447 241.82542  L 307.414386 248.623008  L 309.529637 253.446387  L 310.578084 255.420595  L 315.95045 261.848269  L 316.340817 262.218182  L 322.371263 267.650049  L 324.025992 269.015769  L 328.792075 274.099179  L 330.444727 275.813356  L 335.134968 282.610943  L 335.212888 282.741476  L 340.568036 289.40853  L 341.633701 290.434411  L 348.054514 294.282943  L 354.21803 296.206117  L 354.475326 296.266282  "
           style="fill:none;stroke:#3232ff;stroke-width:1.5;"
           id="path1294" />
      </g>
      <g
         id="LineCollection_18">
        <path
           clip-path="url(#p3754c2c06f)"
           d="M 360.896139 276.328586  L 365.269527 275.813356  L 367.316952 275.511537  L 373.737765 270.879228  L 375.210573 269.015769  L 379.061199 262.218182  L 380.158577 258.163804  L 380.683217 255.420595  L 380.49014 248.623008  L 380.158577 247.202413  L 378.862436 241.82542  L 376.110825 235.027833  L 373.737765 230.722289  L 371.939908 228.230246  L 367.316952 223.094154  L 365.204791 221.432659  L 360.896139 218.386577  L 354.475326 215.270428  L 351.808951 214.635072  L 348.054514 213.851065  L 341.633701 214.256602  L 340.556659 214.635072  L 335.212888 217.016607  L 329.382839 221.432659  L 328.792075 221.94395  L 323.345085 228.230246  L 322.371263 229.791627  L 319.970664 235.027833  L 319.115625 241.82542  L 321.196268 248.623008  L 322.371263 250.19288  L 327.923429 255.420595  L 328.792075 256.066308  L 335.212888 260.250207  L 337.875626 262.218182  L 341.633701 265.193263  L 346.317665 269.015769  L 348.054514 270.499597  L 354.475326 274.481198  L 359.141959 275.813356  L 360.896139 276.328586  "
           style="fill:none;stroke:#1919ff;stroke-width:1.5;"
           id="path1297" />
      </g>
      <g
         id="LineCollection_19" />
      <g
         id="line2d_55" />
      <g
         id="line2d_56" />
      <g
         id="line2d_57">
        <defs
           id="defs1304">
          <path
             d="M -5 5  L 5 -5  M -5 -5  L 5 5  "
             id="m24d7424e95"
             style="stroke:#000000;stroke-width:3;" />
        </defs>
        <g
           clip-path="url(#p3754c2c06f)"
           id="g1310">
          <use
             style="stroke:#000000;stroke-width:3;"
             x="289.043157"
             xlink:href="#m24d7424e95"
             y="345.960122"
             id="use1306" />
          <use
             style="stroke:#000000;stroke-width:3;"
             x="245.596382"
             xlink:href="#m24d7424e95"
             y="348.468083"
             id="use1308" />
        </g>
      </g>
      <g
         id="patch_3">
        <path
           d="M 72 504  L 72 69.12  "
           style="fill:none;stroke:#000000;stroke-linecap:square;stroke-linejoin:miter;stroke-width:1.2;"
           id="path1313" />
      </g>
      <g
         id="patch_4">
        <path
           d="M 518.4 504  L 518.4 69.12  "
           style="fill:none;stroke:#000000;stroke-linecap:square;stroke-linejoin:miter;stroke-width:1.2;"
           id="path1316" />
      </g>
      <g
         id="patch_5">
        <path
           d="M 72 504  L 518.4 504  "
           style="fill:none;stroke:#000000;stroke-linecap:square;stroke-linejoin:miter;stroke-width:1.2;"
           id="path1319" />
      </g>
      <g
         id="patch_6">
        <path
           d="M 72 69.12  L 518.4 69.12  "
           style="fill:none;stroke:#000000;stroke-linecap:square;stroke-linejoin:miter;stroke-width:1.2;"
           id="path1322" />
      </g>
      <g
         id="legend_1">
        <g
           id="patch_7">
          <path
             d="M 401.975795 142.396198  L 511.2 142.396198  L 511.2 76.32  L 401.975795 76.32  z "
             style="fill:#ffffff;stroke:#000000;stroke-linejoin:miter;"
             id="path1325" />
        </g>
        <g
           id="line2d_58">
          <path
             d="M 407.735795 87.36975  L 436.535795 87.36975  "
             style="fill:none;stroke:#ff0b0b;stroke-linecap:square;stroke-width:1.5;"
             id="path1328" />
        </g>
        <g
           id="line2d_59" />
        <g
           id="text_21">
          <!-- $\mathsf{Ca^{2+}}$ -->
          <g
             transform="translate(448.055795 92.40975)scale(0.144 -0.144)"
             id="g1346">
            <defs
               id="defs1336">
              <path
                 d="M 54.703125 11.15625  C 48 6.671875 44.90625 5.375 36.796875 5.375  C 22.796875 5.375 14.59375 20.359375 14.59375 34.046875  C 14.59375 48.625 23 63 37.203125 63  C 43.59375 63 47.796875 61.21875 52.90625 58.046875  L 54.296875 65.890625  C 49.5 68.28125 43.40625 69.375 37.296875 69.375  C 18.09375 69.375 6.203125 51.8125 6.203125 34.046875  C 6.203125 14.484375 20.296875 -1 36.296875 -1  C 44.90625 -1 47.90625 -0.296875 55.296875 4.375  z "
                 id="CMSS17-67" />
              <path
                 d="M 37.59375 27.984375  C 37.59375 37.375 30.90625 43.875 21.90625 43.875  C 17.5 43.875 12.703125 43.078125 7.203125 39.890625  L 7.796875 33.359375  C 10.296875 35.125 14.59375 38 21.796875 38  C 26.90625 38 30 34.0625 30 27.84375  L 30 24  C 14 24 4 19.34375 4 11.34375  C 4 7.203125 6.5 -1 14.796875 -1  C 16.296875 -1 24.40625 -1 30.203125 3.390625  L 30.203125 -0.296875  L 37.59375 -0.296875  z M 30 12.75  C 30 10.953125 30 8.5625 27 6.78125  C 24.40625 5.078125 21.09375 5.078125 19.703125 5.078125  C 14.703125 5.078125 11.296875 7.984375 11.296875 11.625  C 11.296875 18.921875 26.90625 18.921875 30 18.921875  z "
                 id="CMSS17-97" />
              <path
                 d="M 25.796875 21.203125  C 28.59375 24.078125 32.796875 27.5625 35.703125 31.046875  C 38.5 34.4375 42.203125 39.234375 42.203125 46.203125  C 42.203125 57.140625 34.796875 67 22.203125 67  C 12.296875 67 6.59375 60.828125 3.90625 51.15625  L 7.796875 45.765625  C 10 54.84375 13.09375 60.625 20.90625 60.625  C 29.5 60.625 34.296875 53.640625 34.296875 45.96875  C 34.296875 36.796875 27.296875 29.703125 22 24.421875  C 16.09375 18.546875 10.296875 12.5625 4.703125 6.375  L 4.703125 0  L 42.203125 0  L 42.203125 6.765625  L 25.203125 6.765625  C 24 6.765625 22.796875 6.765625 21.59375 6.765625  L 11.59375 6.765625  L 11.59375 6.859375  z "
                 id="CMSS17-50" />
              <path
                 d="M 37.703125 23  L 64.203125 23  C 65.59375 23 67.296875 23 67.296875 24.6875  C 67.296875 26.484375 65.703125 26.484375 64.203125 26.484375  L 37.703125 26.484375  L 37.703125 52.90625  C 37.703125 54.296875 37.703125 56 36 56  C 34.203125 56 34.203125 54.40625 34.203125 52.90625  L 34.203125 26.484375  L 7.703125 26.484375  C 6.296875 26.484375 4.59375 26.484375 4.59375 24.796875  C 4.59375 23 6.203125 23 7.703125 23  L 34.203125 23  L 34.203125 -3.40625  C 34.203125 -4.796875 34.203125 -6.5 35.90625 -6.5  C 37.703125 -6.5 37.703125 -4.90625 37.703125 -3.40625  z "
                 id="CMR17-43" />
            </defs>
            <use
               transform="scale(0.996264)"
               xlink:href="#CMSS17-67"
               id="use1338" />
            <use
               transform="translate(59.855772 0)scale(0.996264)"
               xlink:href="#CMSS17-97"
               id="use1340" />
            <use
               transform="translate(104.777692 36.153639)scale(0.697382)"
               xlink:href="#CMSS17-50"
               id="use1342" />
            <use
               transform="translate(137.568074 36.153639)scale(0.697382)"
               xlink:href="#CMR17-43"
               id="use1344" />
          </g>
        </g>
        <g
           id="line2d_60">
          <path
             d="M 407.735795 107.955149  L 436.535795 107.955149  "
             style="fill:none;stroke:#0b0bff;stroke-linecap:square;stroke-width:1.5;"
             id="path1349" />
        </g>
        <g
           id="line2d_61" />
        <g
           id="text_22">
          <!-- No $\mathsf{Ca^{2+}}$ -->
          <g
             transform="translate(448.055795 112.995149)scale(0.144 -0.144)"
             id="g1369">
            <defs
               id="defs1355">
              <path
                 d="M 64.59375 73  L 55.796875 73  L 55.796875 13.296875  L 17.703125 73  L 7.59375 73  L 7.59375 -0.03125  L 16.40625 -0.03125  L 16.40625 59.171875  L 54.09375 -0.03125  L 64.59375 -0.03125  z "
                 id="Nimbus_Sans_L_Regular-78" />
              <path
                 d="M 27.203125 54  C 12.5 54 3.59375 43.53125 3.59375 25.984375  C 3.59375 8.453125 12.40625 -2 27.296875 -2  C 42 -2 51 8.453125 51 25.59375  C 51 43.625 42.296875 54 27.203125 54  z M 27.296875 46.28125  C 36.703125 46.28125 42.296875 38.625 42.296875 25.703125  C 42.296875 13.453125 36.5 5.703125 27.296875 5.703125  C 18 5.703125 12.296875 13.359375 12.296875 25.984375  C 12.296875 38.53125 18 46.28125 27.296875 46.28125  z "
                 id="Nimbus_Sans_L_Regular-111" />
            </defs>
            <use
               transform="scale(0.996264)"
               xlink:href="#Nimbus_Sans_L_Regular-78"
               id="use1357" />
            <use
               transform="translate(71.929985 0)scale(0.996264)"
               xlink:href="#Nimbus_Sans_L_Regular-111"
               id="use1359" />
            <use
               transform="translate(155.016831 0)scale(0.996264)"
               xlink:href="#CMSS17-67"
               id="use1361" />
            <use
               transform="translate(214.872603 0)scale(0.996264)"
               xlink:href="#CMSS17-97"
               id="use1363" />
            <use
               transform="translate(259.794524 36.153639)scale(0.697382)"
               xlink:href="#CMSS17-50"
               id="use1365" />
            <use
               transform="translate(292.584905 36.153639)scale(0.697382)"
               xlink:href="#CMR17-43"
               id="use1367" />
          </g>
        </g>
        <g
           id="line2d_62" />
        <g
           id="line2d_63">
          <g
             id="g1375">
            <use
               style="stroke:#000000;stroke-width:3;"
               x="422.135795"
               xlink:href="#m24d7424e95"
               y="128.540549"
               id="use1373" />
          </g>
        </g>
        <g
           id="text_23">
          <!-- R-GECO -->
          <g
             transform="translate(448.055795 133.580549)scale(0.144 -0.144)"
             id="g1398">
            <defs
               id="defs1384">
              <path
                 d="M 18.59375 31.78125  L 42.59375 31.78125  C 50.90625 31.78125 54.59375 27.71875 54.59375 18.546875  L 54.5 11.90625  C 54.5 7.3125 55.296875 2.828125 56.59375 -0.21875  L 67.90625 -0.21875  L 67.90625 2.125  C 64.40625 4.5625 63.703125 7.21875 63.5 17.078125  C 63.40625 29.265625 61.5 32.9375 53.59375 36.390625  C 61.796875 40.359375 65.09375 45.40625 65.09375 53.65625  C 65.09375 66.140625 57.203125 73 42.90625 73  L 9.296875 73  L 9.296875 -0.21875  L 18.59375 -0.21875  z M 18.59375 40  L 18.59375 64.78125  L 41.09375 64.78125  C 46.296875 64.78125 49.296875 64 51.59375 62.015625  C 54.09375 59.9375 55.40625 56.6875 55.40625 52.34375  C 55.40625 43.84375 51 40 41.09375 40  z "
                 id="Nimbus_Sans_L_Regular-82" />
              <path
                 d="M 28.40625 31.203125  L 4.59375 31.203125  L 4.59375 24  L 28.40625 24  z "
                 id="Nimbus_Sans_L_Regular-45" />
              <path
                 d="M 70.90625 39  L 40.5 39  L 40.5 30.796875  L 62.703125 30.796875  L 62.703125 28.765625  C 62.703125 15.671875 53.09375 6.203125 39.796875 6.203125  C 32.40625 6.203125 25.703125 8.890625 21.40625 13.59375  C 16.59375 18.765625 13.703125 27.4375 13.703125 36.40625  C 13.703125 54.234375 23.90625 66 39.296875 66  C 50.40625 66 58.40625 60.375 60.40625 51.125  L 69.90625 51.125  C 67.296875 65.796875 56.09375 74.21875 39.40625 74.21875  C 30.5 74.21875 23.296875 71.921875 17.59375 67.234375  C 9.203125 60.25 4.40625 48.984375 4.40625 35.90625  C 4.40625 13.5625 18.09375 -2 37.796875 -2  C 47.703125 -2 55.59375 1.703125 62.703125 9.625  L 65 -0.109375  L 70.90625 -0.109375  z "
                 id="Nimbus_Sans_L_Regular-71" />
              <path
                 d="M 18.296875 33  L 58 33  L 58 41.21875  L 18.296875 41.21875  L 18.296875 64.78125  L 59.5 64.78125  L 59.5 73  L 9 73  L 9 0  L 61.296875 0  L 61.296875 8.21875  L 18.296875 8.21875  z "
                 id="Nimbus_Sans_L_Regular-69" />
              <path
                 d="M 66.203125 50.453125  C 63.296875 66.4375 54.09375 74.21875 38.09375 74.21875  C 28.296875 74.21875 20.40625 71.125 15 65.125  C 8.40625 57.953125 4.796875 47.578125 4.796875 35.796875  C 4.796875 23.828125 8.5 13.5625 15.40625 6.46875  C 21 0.6875 28.203125 -2 37.703125 -2  C 55.5 -2 65.5 7.578125 67.703125 26.828125  L 58.09375 26.828125  C 57.296875 21.859375 56.296875 18.46875 54.796875 15.578125  C 51.796875 9.59375 45.59375 6.203125 37.796875 6.203125  C 23.296875 6.203125 14.09375 17.765625 14.09375 35.90625  C 14.09375 54.546875 22.90625 66 37 66  C 42.90625 66 48.40625 64.21875 51.40625 61.40625  C 54.09375 58.921875 55.59375 55.828125 56.703125 50.453125  z "
                 id="Nimbus_Sans_L_Regular-67" />
              <path
                 d="M 38.90625 74.21875  C 18 74.21875 3.796875 58.84375 3.796875 36.109375  C 3.796875 13.359375 18 -2 39 -2  C 47.796875 -2 55.703125 0.6875 61.59375 5.671875  C 69.5 12.359375 74.203125 23.625 74.203125 35.5  C 74.203125 58.953125 60.296875 74.21875 38.90625 74.21875  z M 38.90625 66  C 54.703125 66 64.90625 54.046875 64.90625 35.703125  C 64.90625 18.171875 54.40625 6.203125 39 6.203125  C 23.5 6.203125 13.09375 18.171875 13.09375 36.109375  C 13.09375 54.046875 23.5 66 38.90625 66  z "
                 id="Nimbus_Sans_L_Regular-79" />
            </defs>
            <use
               transform="scale(0.996264)"
               xlink:href="#Nimbus_Sans_L_Regular-82"
               id="use1386" />
            <use
               transform="translate(71.929985 0)scale(0.996264)"
               xlink:href="#Nimbus_Sans_L_Regular-45"
               id="use1388" />
            <use
               transform="translate(105.105215 0)scale(0.996264)"
               xlink:href="#Nimbus_Sans_L_Regular-71"
               id="use1390" />
            <use
               transform="translate(182.613585 0)scale(0.996264)"
               xlink:href="#Nimbus_Sans_L_Regular-69"
               id="use1392" />
            <use
               transform="translate(249.063616 0)scale(0.996264)"
               xlink:href="#Nimbus_Sans_L_Regular-67"
               id="use1394" />
            <use
               transform="translate(320.993601 0)scale(0.996264)"
               xlink:href="#Nimbus_Sans_L_Regular-79"
               id="use1396" />
          </g>
        </g>
      </g>
    </g>
  </g>
  <defs
     id="defs1407">
    <clipPath
       id="p3754c2c06f">
      <rect
         height="434.88"
         width="446.4"
         x="72"
         y="69.12"
         id="rect1404" />
    </clipPath>
  </defs>
</svg>
