<?xml version="1.0" standalone="no" ?>
<!DOCTYPE svg PUBLIC "-//W3C//DTD SVG 1.1//EN" "http://www.w3.org/Graphics/SVG/1.1/DTD/svg11.dtd">
<svg width="108px" height="61px" viewBox="0 0 108 61" style="background-color: #ffffffff" xmlns="http://www.w3.org/2000/svg" xmlns:xlink="http://www.w3.org/1999/xlink" version="1.1" >
<path stroke="transparent" fill="#000000" transform="matrix(0.05 0 0 0.05 -279 -106)" d="M 5956.58,2887.2 L 5950.58,2890.67 L 5944.58,2887.2 L 5944.58,2599.2 L 5956.58,2606.13 L 5956.58,2887.2 Z " />
<path stroke="transparent" fill="#000000" transform="matrix(0.05 0 0 0.05 -279 -106)" d="M 6008.42,2860.74 L 5996.42,2860.74 L 5996.42,2815.11 L 6008.42,2815.11 L 6008.42,2860.74 Z " />
<path stroke="transparent" fill="#000000" transform="matrix(0.05 0 0 0.05 -279 -106)" d="M 6008.42,2769.48 L 5996.42,2769.48 L 5996.42,2723.85 L 6008.42,2723.85 L 6008.42,2769.48 Z " />
<path stroke="transparent" fill="#000000" transform="matrix(0.05 0 0 0.05 -279 -106)" d="M 6008.42,2678.22 L 5996.42,2678.22 L 5996.42,2632.6 L 6008.42,2632.6 L 6008.42,2678.22 Z " />
<path stroke="transparent" fill="#000000" transform="matrix(0.05 0 0 0.05 -279 -106)" d="M 6200,3027.74 L 6200,3041.59 L 5950.58,2897.59 L 5950.58,2890.67 L 5956.58,2887.2 L 6200,3027.74 Z " />
<path stroke="transparent" fill="#000000" transform="matrix(0.05 0 0 0.05 -279 -106)" d="M 6203,2969.61 L 6197,2980 L 6157.48,2957.19 L 6163.48,2946.8 L 6203,2969.61 Z " />
<path stroke="transparent" fill="#000000" transform="matrix(0.05 0 0 0.05 -279 -106)" d="M 6123.97,2923.98 L 6117.97,2934.37 L 6078.45,2911.56 L 6084.45,2901.17 L 6123.97,2923.98 Z " />
<path stroke="transparent" fill="#000000" transform="matrix(0.05 0 0 0.05 -279 -106)" d="M 6044.94,2878.35 L 6038.94,2888.75 L 5999.42,2865.93 L 6005.42,2855.54 L 6044.94,2878.35 Z " />
<path stroke="transparent" fill="#000000" transform="matrix(0.05 0 0 0.05 -279 -106)" d="M 6443.42,2887.2 L 6455.42,2894.13 L 6200,3041.59 L 6200,3027.74 L 6443.42,2887.2 Z " />
<path stroke="transparent" fill="#000000" transform="matrix(0.05 0 0 0.05 -279 -106)" d="M 6394.58,2855.54 L 6400.58,2865.93 L 6361.06,2888.75 L 6355.06,2878.35 L 6394.58,2855.54 Z " />
<path stroke="transparent" fill="#000000" transform="matrix(0.05 0 0 0.05 -279 -106)" d="M 6315.55,2901.17 L 6321.55,2911.56 L 6282.03,2934.37 L 6276.03,2923.98 L 6315.55,2901.17 Z " />
<path stroke="transparent" fill="#000000" transform="matrix(0.05 0 0 0.05 -279 -106)" d="M 6236.52,2946.8 L 6242.52,2957.19 L 6203,2980 L 6197,2969.61 L 6236.52,2946.8 Z " />
<path stroke="transparent" fill="#000000" transform="matrix(0.05 0 0 0.05 -279 -106)" d="M 6443.42,2606.13 L 6449.42,2602.67 L 6455.42,2606.13 L 6455.42,2894.13 L 6443.42,2887.2 L 6443.42,2606.13 Z " />
<path stroke="transparent" fill="#000000" transform="matrix(0.05 0 0 0.05 -279 -106)" d="M 6391.58,2632.6 L 6403.58,2632.6 L 6403.58,2678.22 L 6391.58,2678.22 L 6391.58,2632.6 Z " />
<path stroke="transparent" fill="#000000" transform="matrix(0.05 0 0 0.05 -279 -106)" d="M 6391.58,2723.85 L 6403.58,2723.85 L 6403.58,2769.48 L 6391.58,2769.48 L 6391.58,2723.85 Z " />
<path stroke="transparent" fill="#000000" transform="matrix(0.05 0 0 0.05 -279 -106)" d="M 6391.58,2815.11 L 6403.58,2815.11 L 6403.58,2860.74 L 6391.58,2860.74 L 6391.58,2815.11 Z " />
<path stroke="transparent" fill="#000000" transform="matrix(0.05 0 0 0.05 -279 -106)" d="M 6200,2465.59 L 6200,2451.74 L 6449.42,2595.74 L 6449.42,2602.67 L 6443.42,2606.13 L 6200,2465.59 Z " />
<path stroke="transparent" fill="#000000" transform="matrix(0.05 0 0 0.05 -279 -106)" d="M 6197,2523.72 L 6203,2513.33 L 6242.52,2536.14 L 6236.52,2546.54 L 6197,2523.72 Z " />
<path stroke="transparent" fill="#000000" transform="matrix(0.05 0 0 0.05 -279 -106)" d="M 6276.03,2569.35 L 6282.03,2558.96 L 6321.55,2581.77 L 6315.55,2592.16 L 6276.03,2569.35 Z " />
<path stroke="transparent" fill="#000000" transform="matrix(0.05 0 0 0.05 -279 -106)" d="M 6355.06,2614.98 L 6361.06,2604.59 L 6400.58,2627.4 L 6394.58,2637.79 L 6355.06,2614.98 Z " />
<path stroke="transparent" fill="#000000" transform="matrix(0.05 0 0 0.05 -279 -106)" d="M 5956.58,2606.13 L 5944.58,2599.2 L 6200,2451.74 L 6200,2465.59 L 5956.58,2606.13 Z " />
<path stroke="transparent" fill="#000000" transform="matrix(0.05 0 0 0.05 -279 -106)" d="M 6005.42,2637.79 L 5999.42,2627.4 L 6038.94,2604.59 L 6044.94,2614.98 L 6005.42,2637.79 Z " />
<path stroke="transparent" fill="#000000" transform="matrix(0.05 0 0 0.05 -279 -106)" d="M 6084.45,2592.16 L 6078.45,2581.77 L 6117.97,2558.96 L 6123.97,2569.35 L 6084.45,2592.16 Z " />
<path stroke="transparent" fill="#000000" transform="matrix(0.05 0 0 0.05 -279 -106)" d="M 6163.48,2546.54 L 6157.48,2536.14 L 6197,2513.33 L 6203,2523.72 L 6163.48,2546.54 Z " />
<text x="0" y="0" stroke="transparent" fill="#000000" transform="matrix(0.05 0 0 0.05 64.6502 44.0109)" style="font:normal normal normal 200px 'Arial'" >
N</text>
<text x="0" y="0" stroke="transparent" fill="#000000" transform="matrix(0.05 0 0 0.05 86.8454 36.9222)" style="font:normal normal normal 200px 'Arial'" >
N</text>
<path stroke="transparent" fill="#000000" transform="matrix(0.05 0 0 0.05 -279 -106)" d="M 6951.74,2824.58 L 6939.74,2824.52 L 6940.65,2643.03 L 6946.67,2640 L 6952.64,2644.38 L 6951.74,2824.58 Z " />
<path stroke="transparent" fill="#000000" transform="matrix(0.05 0 0 0.05 -279 -106)" d="M 7003.58,2824.84 L 6991.58,2824.78 L 6991.83,2775.79 L 7003.83,2775.85 L 7003.58,2824.84 Z " />
<path stroke="transparent" fill="#000000" transform="matrix(0.05 0 0 0.05 -279 -106)" d="M 7004.07,2726.85 L 6992.07,2726.79 L 6992.32,2677.8 L 7004.32,2677.86 L 7004.07,2726.85 Z " />
<path stroke="transparent" fill="#000000" transform="matrix(0.05 0 0 0.05 -279 -106)" d="M 7216.42,3011.3 L 7220.93,3025.43 L 7041.16,2966.02 L 7044.93,2954.63 L 7216.42,3011.3 Z " />
<path stroke="transparent" fill="#000000" transform="matrix(0.05 0 0 0.05 -279 -106)" d="M 7311.17,2882.25 L 7320.84,2889.35 L 7220.93,3025.43 L 7216.42,3011.3 L 7311.17,2882.25 Z " />
<path stroke="transparent" fill="#000000" transform="matrix(0.05 0 0 0.05 -279 -106)" d="M 7216.38,2559.42 L 7220.97,2545.34 L 7321.26,2682.94 L 7311.57,2690.01 L 7216.38,2559.42 Z " />
<path stroke="transparent" fill="#000000" transform="matrix(0.05 0 0 0.05 -279 -106)" d="M 7193.93,2617.04 L 7203.63,2609.98 L 7228.81,2644.52 L 7219.11,2651.59 L 7193.93,2617.04 Z " />
<path stroke="transparent" fill="#000000" transform="matrix(0.05 0 0 0.05 -279 -106)" d="M 7244.29,2686.14 L 7253.99,2679.07 L 7279.17,2713.62 L 7269.48,2720.69 L 7244.29,2686.14 Z " />
<path stroke="transparent" fill="#000000" transform="matrix(0.05 0 0 0.05 -279 -106)" d="M 6952.64,2644.38 L 6946.67,2640 L 6947.74,2633.35 L 7220.97,2545.34 L 7216.38,2559.42 L 6952.64,2644.38 Z " />
<path stroke="transparent" fill="#000000" transform="matrix(0.05 0 0 0.05 -279 -106)" d="M 6999.76,2683.24 L 6996.08,2671.82 L 7036.3,2658.87 L 7039.98,2670.29 L 6999.76,2683.24 Z " />
<path stroke="transparent" fill="#000000" transform="matrix(0.05 0 0 0.05 -279 -106)" d="M 7080.2,2657.33 L 7076.52,2645.91 L 7116.74,2632.95 L 7120.42,2644.37 L 7080.2,2657.33 Z " />
<path stroke="transparent" fill="#000000" transform="matrix(0.05 0 0 0.05 -279 -106)" d="M 7160.64,2631.42 L 7156.97,2620 L 7197.19,2607.04 L 7200.87,2618.46 L 7160.64,2631.42 Z " />
<text x="0" y="0" stroke="transparent" fill="#000000" transform="matrix(0.05 0 0 0.05 2.16932 49.3444)" style="font:normal normal normal 200px 'Arial'" >
O</text>
<path stroke="transparent" fill="#000000" transform="matrix(0.05 0 0 0.05 -279 -106)" d="M 5793.92,2988.04 L 5787.92,2977.65 L 5944.58,2887.2 L 5950.58,2890.67 L 5950.58,2897.59 L 5793.92,2988.04 Z " />
<path stroke="transparent" fill="#000000" transform="matrix(0.05 0 0 0.05 -279 -106)" d="M 5819.84,3032.94 L 5813.84,3022.55 L 5858.42,2996.81 L 5864.42,3007.2 L 5819.84,3032.94 Z " />
<path stroke="transparent" fill="#000000" transform="matrix(0.05 0 0 0.05 -279 -106)" d="M 5909,2981.46 L 5903,2971.07 L 5947.58,2945.33 L 5953.58,2955.72 L 5909,2981.46 Z " />
<path stroke="#000000" stroke-width="10" fill="transparent" transform="matrix(0.05 0 0 0.05 -279 -106)" d="M 5629.7,2841.05 A 71.7999,71.7999 0 1 0 5773.3,2841.05A 71.7999,71.7999 0 1 0 5629.7,2841.05Z " />
<path stroke="transparent" fill="#000000" transform="matrix(0.05 0 0 0.05 -279 -106)" d="M 5661.84,2835.72 L 5740.5,2835.72 L 5740.5,2845.72 L 5661.84,2845.72 Z " />
<text x="0" y="0" stroke="transparent" fill="#000000" transform="matrix(0.05 0 0 0.05 82.5012 11.537)" style="font:normal normal normal 200px 'Arial'" >
O</text>
<path stroke="transparent" fill="#000000" transform="matrix(0.05 0 0 0.05 -279 -106)" d="M 7244.41,2370.18 L 7255.82,2373.89 L 7193.93,2564.04 L 7182.52,2560.33 L 7244.41,2370.18 Z " />
<path stroke="transparent" fill="#000000" transform="matrix(0.05 0 0 0.05 -279 -106)" d="M 7293.7,2386.22 L 7305.11,2389.94 L 7243.23,2580.09 L 7231.81,2576.37 L 7293.7,2386.22 Z " />
<path stroke="#000000" stroke-width="12" fill="transparent" transform="matrix(0.05 0 0 0.05 -279 -106)" d="M 7476.91,2786.37 C 7476.89,2797.41 7485.83,2806.39 7496.87,2806.41 C 7507.91,2806.43 7516.89,2797.48 7516.91,2786.44 C 7516.93,2775.4 7525.9,2766.46 7536.94,2766.48 C 7547.98,2766.5 7556.93,2775.47 7556.91,2786.51 C 7556.89,2797.55 7565.83,2806.53 7576.87,2806.55 C 7587.91,2806.57 7596.89,2797.62 7596.91,2786.58 C 7596.93,2775.54 7605.9,2766.6 7616.94,2766.62 C 7627.98,2766.64 7636.93,2775.61 7636.91,2786.65 C 7636.89,2797.69 7645.83,2806.67 7656.87,2806.69 C 7667.91,2806.71 7676.89,2797.76 7676.91,2786.72 " />
<path stroke="#000000" stroke-width="12" fill="transparent" transform="matrix(0.05 0 0 0.05 -279 -106)" d="M 7218.68,3018.37 C 7208.16,3021.73 7202.17,3032.43 7205.31,3042.27 C 7208.45,3052.1 7219.54,3057.35 7230.05,3054 C 7240.57,3050.64 7251.66,3055.89 7254.8,3065.73 C 7257.94,3075.56 7251.95,3086.27 7241.43,3089.63 C 7230.92,3092.98 7224.93,3103.69 7228.07,3113.53 C 7231.21,3123.36 7242.3,3128.61 7252.81,3125.26 C 7263.33,3121.9 7274.41,3127.15 7277.56,3136.99 C 7280.7,3146.82 7274.71,3157.53 7264.19,3160.88 C 7253.68,3164.24 7247.69,3174.95 7250.83,3184.78 C 7253.97,3194.62 7265.06,3199.87 7275.57,3196.51 C 7286.09,3193.16 7297.17,3198.41 7300.31,3208.24 C 7303.45,3218.08 7297.47,3228.79 7286.95,3232.14 C 7276.44,3235.5 7270.45,3246.21 7273.59,3256.04 C 7276.73,3265.88 7287.82,3271.13 7298.33,3267.77 C 7308.85,3264.41 7319.93,3269.67 7323.07,3279.5 " />
<text x="0" y="0" stroke="transparent" fill="#000000" transform="matrix(0.05 0 0 0.05 39.4167 12.9167)" style="font:normal normal bold 186.667px 'Times New Roman'" >
α</text>
<text x="0" y="0" stroke="transparent" fill="#000000" transform="matrix(0.05 0 0 0.05 71.0833 13.5833)" style="font:normal normal bold 186.667px 'Times New Roman'" >
β</text>
<path stroke="transparent" fill="#000000" transform="matrix(0.05 0 0 0.05 -279 -106)" d="M 6699.22,2451.52 L 6698.44,2465.82 L 6455.42,2606.13 L 6449.42,2602.67 L 6449.42,2595.74 L 6699.22,2451.52 Z " />
<path stroke="transparent" fill="#000000" transform="matrix(0.05 0 0 0.05 -279 -106)" d="M 6698.44,2465.82 L 6699.22,2451.52 L 6947.74,2633.35 L 6946.67,2640 L 6940.65,2643.03 L 6698.44,2465.82 Z " />
<path stroke="#000000" stroke-width="12" fill="transparent" transform="matrix(0.05 0 0 0.05 -279 -106)" d="M 6505.9,2444.3 C 6457.79,2430.83 6445.4,2474.17 6478.25,2541.02 C 6511.1,2607.87 6576.81,2673.06 6624.92,2686.53 C 6650.81,2693.78 6668.04,2683.99 6670.6,2660.6 " />
<path stroke="transparent" fill="#000000" transform="matrix(0.05 0 0 0.05 -279 -106)" d="M 6574.01,2486.65 C 6574.01,2486.65 6483.07,2458.71 6483.07,2458.71 C 6483.07,2458.71 6500.43,2452.85 6505.9,2444.3 C 6511.37,2435.75 6509.27,2417.79 6509.27,2417.79 C 6509.27,2417.79 6574.01,2486.65 6574.01,2486.65 C 6574.01,2486.65 6574.01,2486.65 6574.01,2486.65 " />
<path stroke="#000000" stroke-width="1" fill="transparent" transform="matrix(0.05 0 0 0.05 -279 -106)" d="M 6574.01,2486.65 C 6574.01,2486.65 6483.07,2458.71 6483.07,2458.71 C 6483.07,2458.71 6500.43,2452.85 6505.9,2444.3 C 6511.37,2435.75 6509.27,2417.79 6509.27,2417.79 C 6509.27,2417.79 6574.01,2486.65 6574.01,2486.65 C 6574.01,2486.65 6574.01,2486.65 6574.01,2486.65 " />
<path stroke="#000000" stroke-width="12" fill="transparent" transform="matrix(0.05 0 0 0.05 -279 -106)" d="M 6957.37,2467.28 C 6958.52,2417.37 6913.47,2416.11 6856.84,2464.46 C 6800.21,2512.81 6753.32,2592.56 6752.18,2642.47 C 6751.56,2669.33 6765.3,2683.59 6788.6,2680.27 " />
<path stroke="transparent" fill="#000000" transform="matrix(0.05 0 0 0.05 -279 -106)" d="M 6933.21,2543.7 C 6933.21,2543.7 6937.99,2448.46 6937.99,2448.46 C 6937.99,2448.46 6947.84,2463.98 6957.37,2467.28 C 6966.91,2470.58 6983.66,2464.27 6983.66,2464.27 C 6983.66,2464.27 6933.21,2543.7 6933.21,2543.7 C 6933.21,2543.7 6933.21,2543.7 6933.21,2543.7 " />
<path stroke="#000000" stroke-width="1" fill="transparent" transform="matrix(0.05 0 0 0.05 -279 -106)" d="M 6933.21,2543.7 C 6933.21,2543.7 6937.99,2448.46 6937.99,2448.46 C 6937.99,2448.46 6947.84,2463.98 6957.37,2467.28 C 6966.91,2470.58 6983.66,2464.27 6983.66,2464.27 C 6983.66,2464.27 6933.21,2543.7 6933.21,2543.7 C 6933.21,2543.7 6933.21,2543.7 6933.21,2543.7 " />
</svg>